<svg xmlns="http://www.w3.org/2000/svg" viewBox="0 0 40 55"><path d="M31.93 11H27c-.23 0-.7.24-.7.47l-4.22 8.19C20.9 22.24 20 25.05 20 25.05a43.48 43.48 0 00-2.11-5.15l-4.21-8.43c0-.23-.47-.47-.7-.47H8.06c-.7 0-1.17.71-.93 1.17l6.08 11H8.76a1 1 0 00-.93.94v2.34a1 1 0 00.93.94h6.56l1.4 2.8v1.93h-8a1 1 0 00-.93.93v2.34a1 1 0 00.93.94H17v6.79a1 1 0 00.93.93h4.21a1 1 0 00.94-.93v-6.84h8.19a1 1 0 00.95-.94V33a1 1 0 00-.95-.93H23v-1.88l1.4-2.8H31a1 1 0 00.93-.94v-2.33a1 1 0 00-.93-.94h-4.45l6.32-11c.24-.47-.23-1.18-.94-1.18z" fill="#77554f" fill-rule="evenodd"/></svg>