<svg viewBox="0 0 21 28" fill="none" xmlns="http://www.w3.org/2000/svg">
<path d="M10.2685 6.56623L4.19902 0.696643C3.48463 0.00538264 2.42592 -0.191167 1.50989 0.195917C0.594735 0.584696 0 1.48279 0 2.47746V17.4621C0 18.4686 0.408467 19.4325 1.13221 20.1332L8.54587 27.3034C9.50636 28.2322 11.0308 28.2322 11.9904 27.3034L19.4049 20.1332C20.1286 19.4325 20.5371 18.4686 20.5371 17.4621V2.47746C20.5371 1.48279 19.9424 0.584751 19.0272 0.195917C18.1112 -0.191167 17.0525 0.00538264 16.3381 0.696643L10.2685 6.56623ZM17.0414 17.0305C17.0414 17.3664 16.9055 17.6876 16.6637 17.9209L10.2685 24.1067V11.4301L11.4837 10.2543L15.9921 5.8946C16.1698 5.72201 16.4355 5.6724 16.6637 5.76986C16.8927 5.86644 17.0414 6.09115 17.0414 6.33982V17.0305Z" fill="#F3D45B"/>
</svg>
