<svg width="24" height="18" viewBox="0 0 24 18" fill="none" xmlns="http://www.w3.org/2000/svg">
<path fill-rule="evenodd" clip-rule="evenodd" d="M11.9992 10.8724C12.5333 10.115 13.1492 9.43485 13.8362 8.84258C14.6316 8.09491 15.4854 7.50465 16.3471 7.02734C15.6621 4.19478 14.1921 1.68164 12.3167 0.107908C12.1454 -0.0359694 11.8575 -0.0359694 11.6858 0.107908C9.81124 1.68044 8.34125 4.19116 7.655 7.02131C8.50375 7.49143 9.3425 8.0716 10.1225 8.80485C10.8325 9.41829 11.4627 10.1125 11.9992 10.8724ZM23.677 6.42867C22.467 6.4339 18.0516 6.67621 14.7671 9.76345C13.3871 10.9539 12.5437 12.3067 12 13.5748C11.4562 12.3067 10.6129 10.9539 9.23291 9.76345C5.94833 6.67621 1.53293 6.4339 0.322931 6.42867C0.139181 6.42787 -0.00165202 6.56528 1.46398e-05 6.74287C0.00959795 7.86468 0.297514 11.8109 3.69876 14.7504C7.19958 18.0378 10.6667 18 12 18C13.3333 18 16.7996 18.0382 20.3012 14.7504C23.7029 11.8106 23.9904 7.86468 24 6.74287C24.0016 6.56528 23.8608 6.42787 23.677 6.42867Z" fill="#F3D45B"/>
</svg>
