<svg width="71" height="57" viewBox="0 0 71 57" fill="none" xmlns="http://www.w3.org/2000/svg">
<mask id="mask0" mask-type="alpha" maskUnits="userSpaceOnUse" x="38" y="0" width="33" height="57">
<path d="M38.8812 0H70.3136V56.0057H38.8812V0Z" fill="white"/>
</mask>
<g mask="url(#mask0)">
<path fill-rule="evenodd" clip-rule="evenodd" d="M69.3336 36.6063C69.3336 36.4783 65.7396 36.9263 61.0346 41.8541C61.688 40.6381 62.2755 39.4215 62.7329 38.2062C68.0921 36.6703 69.0723 34.3018 70.3139 30.142C69.7904 31.2305 66.1963 32.1265 65.2821 33.8544C64.5627 35.1984 63.7791 36.5417 63.1257 37.1816C63.4524 36.0303 63.7131 34.8784 63.9092 33.7904C63.9092 33.5984 63.9752 33.4064 63.9752 33.2145C65.7396 32.3185 69.7904 29.3106 70.0525 23.6789C69.2676 24.8948 66.327 24.7668 64.1059 31.2945C64.1712 29.9506 64.1059 28.6707 64.0399 27.4547C65.7396 25.9828 69.0069 21.695 68.4188 13.0554C67.7653 14.3993 64.2359 19.0071 64.1059 22.079C64.0399 23.3589 63.9092 24.3829 63.7791 25.0868C63.7791 24.8308 63.7131 24.6389 63.7131 24.3829C63.5824 23.1669 63.3217 22.079 63.0597 20.991C63.2557 19.7751 63.8445 17.9192 64.9554 16.5112C66.327 14.6553 65.8696 13.0554 65.4128 11.9674C64.9554 10.8795 65.2161 8.44761 65.2161 8.44761C65.2161 8.44761 61.9488 11.8395 62.7989 19.7751C62.4722 18.7511 62.1455 17.7912 61.7527 16.9592C61.688 15.9353 61.5573 14.8473 62.2755 13.3754C63.191 11.3915 64.1712 8.44761 61.7527 3.90382C61.688 5.69574 60.2504 8.6396 60.4458 10.8795C60.5771 12.5434 60.8385 14.2713 61.1653 15.6153C60.7078 14.7193 60.185 13.8874 59.6616 13.1194C59.5316 11.9034 60.119 10.2395 60.0544 7.29566C59.9884 3.71183 58.4854 2.94386 58.0939 1.02395C56.721 4.73578 57.5052 9.02358 58.5514 11.5835C58.4207 11.4555 58.3547 11.2635 58.2246 11.1355C57.8319 10.6235 57.5052 10.1755 57.1784 9.72755C57.1784 7.03967 56.3296 4.47979 55.7408 3.32785C55.0873 2.1119 52.9969 1.08795 52.9969 0C52.4734 3.83982 54.3038 6.4637 55.9375 8.31961V8.38361C52.9309 5.50374 49.5328 7.23166 49.5328 7.23166C49.5328 7.23166 51.6239 9.27957 53.3889 9.40756C55.0873 9.53556 55.8715 9.40756 56.8517 9.98354C57.1784 10.4315 57.5052 10.8795 57.8319 11.3275C55.5448 10.0475 52.1467 11.2635 50.8398 12.1594C52.8002 13.7594 54.6959 13.3754 55.7408 12.6074C56.721 11.9674 57.8319 12.5434 58.4854 12.2234C59.0741 12.9914 59.6616 13.8234 60.2504 14.8473C60.7725 15.8073 61.2953 16.8312 61.7527 18.0472C60.5118 16.2552 58.3547 14.0153 55.6761 13.9514C55.7408 15.1033 56.983 17.3432 58.7474 18.3671C60.185 19.1991 61.688 19.5191 62.4722 20.2871C62.7989 21.567 63.1257 22.9749 63.2557 24.4469V24.5109C61.622 20.3511 57.1784 18.4311 56.0028 18.3671C56.0028 18.3671 57.9632 19.8391 58.0939 21.759C58.2246 23.6789 59.9884 24.7029 61.622 25.2788C62.5375 25.5988 63.191 26.3668 63.5178 26.9427C63.6484 28.6707 63.6484 30.4619 63.5178 32.2545C62.7329 24.3189 57.4405 24.3189 57.4405 24.3189C57.4405 24.3189 58.29 25.0228 58.4207 26.3668C58.5514 27.7747 58.8781 28.9267 60.5118 30.7186C61.8187 32.1905 62.5375 34.0464 62.6682 35.3904C62.2108 37.3103 61.426 39.2942 60.3811 41.1501C61.2953 38.6542 61.9488 35.1984 60.7078 32.1905C60.5118 33.9184 57.9632 36.4783 57.9632 38.6542C57.9632 40.5101 58.6814 42.9414 58.0939 44.4779C57.7672 44.8613 57.4405 45.2459 57.1137 45.6299C57.3098 44.4779 57.1784 42.878 57.3745 41.7261C56.787 42.6214 56.3943 45.1179 56.0028 46.7812C55.218 47.5498 54.4338 48.1898 53.5843 48.8937C55.6107 46.3978 56.6563 42.366 56.1982 38.6542C54.6959 40.1261 52.7355 43.198 52.6041 45.6299C52.5394 47.5498 51.6899 49.4057 51.1018 50.5577C50.9704 50.621 50.8398 50.7496 50.6437 50.8136C50.1863 51.0696 49.7295 51.3256 49.2721 51.5176C51.4932 49.4057 52.082 45.6939 52.082 44.03C49.5988 45.8212 46.9189 50.0457 46.5922 52.5409C46.1354 52.6696 45.612 52.7975 45.1552 52.9255C43.1948 53.3095 41.1037 53.3095 39.3393 52.3496L39.208 52.5409L39.0773 52.7335L38.8812 53.1175C40.9076 54.2055 43.1948 54.1408 45.2852 53.7575C46.0694 53.6295 46.7889 53.3735 47.5077 53.1809C48.4226 54.7808 50.9058 56.1254 52.4734 55.9974C54.1071 55.8694 55.7408 55.0374 56.8517 55.3574C55.4141 52.9255 52.9309 52.1576 51.2972 52.7335C49.8595 53.2455 48.8793 53.4375 48.0958 52.9255C49.1414 52.5409 50.1216 52.0296 51.1018 51.5176C51.2325 51.4536 51.3632 51.3896 51.4932 51.3256C53.4536 52.5409 55.9375 52.3496 57.6365 51.7736C59.4656 51.1336 60.185 49.2777 61.622 48.4458C57.8319 47.4212 55.7408 48.8297 54.8266 49.6611C54.1071 50.3657 53.1269 50.8776 52.2127 50.8136C53.7157 49.8537 55.0873 48.7657 56.3296 47.5498C57.3745 47.5498 59.6616 48.2538 61.2953 46.8458C59.7276 46.3338 58.4207 46.1412 57.3745 46.4612C57.7012 46.0779 58.0279 45.6939 58.3547 45.3099C59.5969 45.3739 61.8187 46.1412 63.5178 45.1813C65.6089 43.966 67.896 41.8541 67.896 41.8541C67.896 41.8541 65.0201 41.7261 63.4524 42.174C65.0861 41.4701 69.3336 36.7343 69.3336 36.6063Z" fill="#EBEBEB"/>
</g>
<mask id="mask1" mask-type="alpha" maskUnits="userSpaceOnUse" x="0" y="0" width="30" height="57">
<path d="M0 0H29.7613V56.0057H0V0Z" fill="white"/>
</mask>
<g mask="url(#mask1)">
<path fill-rule="evenodd" clip-rule="evenodd" d="M0.933675 36.6063C0.933675 36.4783 4.35805 36.9263 8.84086 41.8541C8.21825 40.6381 7.65852 39.4215 7.22269 38.2062C2.11664 36.6703 1.18272 34.3018 -0.000244141 30.142C0.498469 31.2305 3.92284 32.1265 4.79388 33.8544C5.47937 35.1984 6.22589 36.5417 6.8485 37.1816C6.53719 36.0303 6.28877 34.8784 6.10199 33.7904C6.10199 33.5984 6.0391 33.4064 6.0391 33.2145C4.35805 32.3185 0.498469 29.3106 0.248801 23.6789C0.996559 24.8948 3.79832 24.7668 5.91458 31.2945C5.85232 29.9506 5.91458 28.6707 5.97746 27.4547C4.35805 25.9828 1.24498 21.695 1.80533 13.0554C2.42795 14.3993 5.79068 19.0071 5.91458 22.079C5.97746 23.3589 6.10199 24.3829 6.22589 25.0868C6.22589 24.8308 6.28877 24.6389 6.28877 24.3829C6.41329 23.1669 6.66172 22.079 6.91138 20.991C6.7246 19.7751 6.16362 17.9192 5.10518 16.5112C3.79832 14.6553 4.23415 13.0554 4.66935 11.9674C5.10518 10.8795 4.85676 8.44761 4.85676 8.44761C4.85676 8.44761 7.96982 11.8395 7.15981 19.7751C7.47111 18.7511 7.78242 17.7912 8.15661 16.9592C8.21825 15.9353 8.34277 14.8473 7.65852 13.3754C6.78624 11.3915 5.85232 8.44761 8.15661 3.90382C8.21825 5.69574 9.588 8.6396 9.40184 10.8795C9.27669 12.5434 9.02764 14.2713 8.71634 15.6153C9.15217 14.7193 9.65026 13.8874 10.149 13.1194C10.2729 11.9034 9.71314 10.2395 9.77478 7.29566C9.83766 3.71183 11.2697 2.94386 11.6426 1.02395C12.9507 4.73578 12.2036 9.02358 11.2068 11.5835C11.3313 11.4555 11.3942 11.2635 11.5181 11.1355C11.8923 10.6235 12.2036 10.1755 12.5149 9.72755C12.5149 7.03967 13.3237 4.47979 13.8846 3.32785C14.5073 2.1119 16.499 1.08795 16.499 0C16.9977 3.83982 15.2538 6.4637 13.6972 8.31961V8.38361C16.5619 5.50374 19.7995 7.23166 19.7995 7.23166C19.7995 7.23166 17.8071 9.27957 16.1254 9.40756C14.5073 9.53556 13.7601 9.40756 12.8262 9.98354C12.5149 10.4315 12.2036 10.8795 11.8923 11.3275C14.0714 10.0475 17.309 11.2635 18.5542 12.1594C16.6864 13.7594 14.8802 13.3754 13.8846 12.6074C12.9507 11.9674 11.8923 12.5434 11.2697 12.2234C10.7087 12.9914 10.149 13.8234 9.588 14.8473C9.09053 15.8073 8.59244 16.8312 8.15661 18.0472C9.33895 16.2552 11.3942 14.0153 13.9463 13.9514C13.8846 15.1033 12.6394 17.3432 11.02 18.3671C9.65026 19.1991 8.21825 19.5191 7.47111 20.2871C7.15981 21.567 6.8485 22.9749 6.7246 24.4469V24.5109C8.28113 20.3511 12.5149 18.4311 13.635 18.3671C13.635 18.3671 11.7671 19.8391 11.6426 21.759C11.5181 23.6789 9.83766 24.7029 8.34277 25.2788C7.47111 25.5988 6.8485 26.3668 6.53719 26.9427C6.41329 28.6707 6.41329 30.4619 6.53719 32.2545C7.03591 24.3189 12.0784 24.3189 12.0784 24.3189C12.0784 24.3189 11.2697 25.0228 11.1445 26.3668C11.02 27.7747 10.7087 28.9267 9.15217 30.7186C7.90694 32.1905 7.22269 34.0464 7.09754 35.3904C7.534 37.3103 8.28113 39.2942 9.27669 41.1501C8.40503 38.6542 7.78242 35.1984 8.96538 32.1905C9.15217 33.9184 11.581 36.4783 11.581 38.6542C11.581 40.5101 10.8955 42.9414 11.4558 44.4779C11.7671 44.8613 12.0784 45.2459 12.3898 45.6299C12.2036 44.4779 12.3281 42.878 12.1407 41.7261C12.7011 42.6214 13.0746 45.1179 13.4488 46.7812C14.196 47.5498 14.9425 48.1898 15.7525 48.8937C13.8218 46.3978 12.8262 42.366 13.262 38.6542C14.694 40.1261 16.5619 43.198 16.6864 45.6299C16.748 47.5498 17.5574 49.4057 18.1184 50.5577C18.2429 50.621 18.3668 50.7496 18.5542 50.8136C18.9895 51.0696 19.4253 51.3256 19.8611 51.5176C17.7442 49.4057 17.1845 45.6939 17.1845 44.03C19.5498 45.8212 22.1025 50.0457 22.4138 52.5409C22.8497 52.6696 23.3477 52.7975 23.7836 52.9255C25.6514 53.3095 27.6438 53.3095 29.3255 52.3496L29.45 52.5409L29.5739 52.7335L29.7613 53.1175C27.8306 54.2055 25.6514 54.1408 23.6591 53.7575C22.9125 53.6295 22.227 53.3735 21.5428 53.1809C20.6705 54.7808 18.3046 56.1254 16.8103 55.9974C15.2538 55.8694 13.6972 55.0374 12.6394 55.3574C14.0085 52.9255 16.3751 52.1576 17.9316 52.7335C19.3008 53.2455 20.2347 53.4375 20.9818 52.9255C19.9863 52.5409 19.0523 52.0296 18.1184 51.5176C17.9933 51.4536 17.8687 51.3896 17.7442 51.3256C15.8764 52.5409 13.5105 52.3496 11.8923 51.7736C10.149 51.1336 9.46347 49.2777 8.09373 48.4458C11.7055 47.4212 13.6972 48.8297 14.5689 49.6611C15.2538 50.3657 16.1877 50.8776 17.0594 50.8136C15.628 49.8537 14.3199 48.7657 13.1375 47.5498C12.1407 47.5498 9.96156 48.2538 8.40503 46.8458C9.8993 46.3338 11.1445 46.1412 12.1407 46.4612C11.8294 46.0779 11.5181 45.6939 11.2068 45.3099C10.0244 45.3739 7.90694 46.1412 6.28877 45.1813C4.29579 43.966 2.11664 41.8541 2.11664 41.8541C2.11664 41.8541 4.85676 41.7261 6.35041 42.174C4.98066 41.4701 0.933675 36.7343 0.933675 36.6063Z" fill="#EBEBEB"/>
</g>
<path fill-rule="evenodd" clip-rule="evenodd" d="M25.9245 28.3065C25.8013 29.1598 25.4292 29.8811 24.5631 29.8811C24.1911 29.8811 23.8202 29.7505 23.572 29.0941L19.6717 17.2793L18.124 28.7003C18.0002 29.4223 17.5669 30.0131 16.8859 30.0131C16.2055 30.0131 15.9573 29.4223 16.0192 28.7003L17.9389 14.4569C18.0628 13.5379 18.6818 12.7503 19.5479 12.7503C20.2295 12.7503 20.6004 13.1441 20.7861 13.8661L24.2536 24.4338L25.6775 13.9974C25.8013 13.2754 26.2966 12.6846 26.9156 12.6846C27.596 12.6846 27.8443 13.2754 27.7198 13.9974L25.9245 28.3065Z" fill="#494954"/>
<path fill-rule="evenodd" clip-rule="evenodd" d="M31.8598 14.1886C31.981 13.4039 32.4071 12.8154 33.0774 12.8154C33.747 12.8154 34.0514 13.4039 33.929 14.1232L33.1985 19.616L38.7992 19.5506L39.5303 14.0578C39.6521 13.2731 40.0782 12.6846 40.7479 12.6846C41.4169 12.6846 41.7213 13.2731 41.6002 13.9924L39.6521 28.5091C39.5303 29.2944 39.1036 29.8823 38.4345 29.8823C37.7643 29.8823 37.4599 29.2944 37.5817 28.5745L38.4345 22.297L32.8339 22.3624L31.981 28.6399C31.8598 29.4245 31.4337 30.0131 30.7634 30.0131C30.0944 30.0131 29.79 29.4245 29.9118 28.7053L31.8598 14.1886Z" fill="#494954"/>
<path fill-rule="evenodd" clip-rule="evenodd" d="M45.7446 14.3153C45.8633 13.5246 46.2781 12.9316 46.9314 12.9316C47.5842 12.9316 47.8809 13.5246 47.7616 14.2494L46.8715 21.1676L52.4501 13.7223C52.9841 12.9975 53.2808 12.7999 53.6369 12.7999C54.2303 12.7999 54.527 13.4587 54.4083 14.2494C54.349 14.5788 54.2303 15.04 53.9336 15.3036L49.4237 20.8381L52.5088 27.5587C52.6874 27.8881 52.6874 28.2834 52.6281 28.6129C52.5088 29.4035 52.0347 30.0624 51.382 30.0624C50.9072 30.0624 50.7286 29.8647 50.3732 29.0741L47.6435 22.9466L46.338 24.5279L45.8039 28.7447C45.6847 29.5353 45.2699 30.1283 44.6171 30.1283C43.9644 30.1283 43.6677 29.5353 43.7863 28.7447L45.7446 14.3153Z" fill="#494954"/>
<path fill-rule="evenodd" clip-rule="evenodd" d="M26.7929 36.5266C27.2399 37.1684 27.5592 37.875 27.7508 38.452L26.9845 38.9654C26.6652 38.1311 26.4736 37.746 26.0266 37.04L26.7929 36.5266ZM25.7705 37.2332C26.2182 37.875 26.4736 38.5804 26.7284 39.1586L25.9628 39.7356C25.7073 38.9012 25.4513 38.3878 25.0687 37.746L25.7705 37.2332ZM27.367 36.2057H26.7284C26.4736 36.2057 26.0266 36.2057 25.7073 36.3341C24.5579 36.7833 23.3446 38.3236 23.3446 39.6714C23.3446 40.6341 24.047 41.084 25.8989 41.084C26.2182 41.084 26.5375 41.084 26.7284 41.0192L26.5375 43.0094C25.5158 43.0094 24.7495 43.0094 23.9193 42.752C22.3867 42.3028 21.8759 40.955 21.8759 39.8639C21.8759 39.4795 21.8759 37.875 23.4084 36.3983C22.8337 36.4624 20.8541 36.7192 20.4071 36.8475L20.2794 34.8579C20.7264 34.8579 20.8541 34.8579 22.0036 34.7296C23.6639 34.537 25.4513 34.4729 27.1761 34.3452L27.367 36.2057Z" fill="#494954"/>
<path fill-rule="evenodd" clip-rule="evenodd" d="M35.3022 35.0741C35.2393 35.574 35.1148 36.0114 34.9909 36.3238H35.7374C35.9248 36.3238 35.9871 36.1988 35.9871 36.0114C36.0487 35.7614 36.0487 35.3865 36.0487 35.0741H35.3022ZM34.6167 41.1974H36.0487V39.7603H34.6167V41.1974ZM32.874 36.6987C33.1231 36.5112 33.8696 36.0739 34.057 35.0741H33.1853V33.5121L37.3569 33.4496C37.3569 35.3241 37.2323 36.5112 37.1701 36.9486C37.0455 37.4485 36.8588 37.8234 36.1733 37.8858H35.3022L34.9909 36.3863C34.8664 36.7612 34.4922 37.4485 33.6828 38.0733L32.874 36.6987ZM32.4376 41.7597C32.4376 41.01 32.3759 40.1352 32.3131 39.3854L32.9986 39.198C33.1231 39.8228 33.1853 40.6975 33.247 41.5723L32.4376 41.7597ZM29.9471 41.7597C30.0723 41.1974 30.1339 40.5726 30.1968 39.2604L31.0062 39.3854C31.0062 40.4476 30.9439 41.6348 30.8194 42.5095L29.9471 41.7597ZM32.1892 43.0094H31.2552L31.1924 38.8856C31.0678 38.8856 30.1968 39.073 30.1339 39.073L30.01 37.5734C30.1339 37.5734 30.1968 37.5734 30.4452 37.5109C30.6949 37.1361 30.6949 37.0736 30.8194 36.8861C30.4452 36.4487 30.2584 36.1363 29.8855 35.8864L30.3213 34.3868C30.4452 34.5118 30.5081 34.5118 30.5081 34.5743C30.7565 33.9495 30.8194 33.5121 30.8811 33.2621L32.0018 33.5121C31.8779 33.887 31.6288 34.5743 31.2552 35.3865C31.3791 35.5115 31.3791 35.574 31.5037 35.699C31.7533 35.2616 31.8779 34.8867 32.1263 34.3243L33.1231 34.8242C32.6873 35.699 32.5005 36.0739 31.5666 37.5109C31.6905 37.5109 31.9401 37.4485 32.1263 37.4485C32.0646 37.1985 32.0018 37.0111 31.9401 36.8236L32.6873 36.4487C32.9986 37.3235 33.1231 37.8234 33.247 38.6356V38.2607L37.1701 38.1983L37.2323 42.697L33.3099 42.7595L33.247 38.6981L32.3759 39.073C32.3759 38.8856 32.3759 38.8856 32.3131 38.6356C32.1892 38.6356 32.1892 38.6356 32.0646 38.6981L32.1892 43.0094Z" fill="#494954"/>
<path fill-rule="evenodd" clip-rule="evenodd" d="M42.4715 36.9247C41.9933 37.2352 41.6518 37.4214 41.2419 37.6698L40.5588 35.9313C41.925 35.4352 43.2229 34.4412 43.9743 33.2621H45.5454C46.5011 34.6896 47.9363 35.4967 49.0975 35.8692L48.4144 37.6698C47.7997 37.3594 47.5947 37.1731 47.1842 36.9247L47.2532 42.8858H45.7504L45.6821 36.8006H47.0482C46.0919 36.1176 45.4764 35.5588 44.8623 34.6275C44.2476 35.5588 43.5645 36.1797 42.6081 36.8626H43.9743V38.4769C44.0426 41.2088 43.018 42.265 41.7194 43.0094L40.8321 41.4572C42.061 40.7742 42.4715 40.1533 42.4715 38.4149V36.9247Z" fill="#494954"/>
</svg>
