<svg height="32" width="20" viewBox="0, 0, 20, 32" xmlns="http://www.w3.org/2000/svg"><g fill="none" fill-rule="evenodd"><path d="M0 3.025l.049 18.242c-.038.816.06 1.562.65 2.144l6.546 6.48C7.71 30.35 9.39 32 10 32V6.287L4.575 1.125A3.038 3.038 0 002.209 0C.426.522 0 1.354 0 3.025z" fill="#f3d45b"/><path d="M20 3.025l-.049 18.242c.038.816-.06 1.562-.65 2.144l-6.546 6.48C12.29 30.35 10.611 32 10 32V6.287l5.425-5.162A3.038 3.038 0 0117.791 0C19.574.522 20 1.354 20 3.025z" fill="#63936b"/></g></svg>