<?xml version="1.0" encoding="utf-8"?>
<!-- Generator: Adobe Illustrator 25.0.0, SVG Export Plug-In . SVG Version: 6.00 Build 0)  -->
<svg version="1.1" xmlns="http://www.w3.org/2000/svg" xmlns:xlink="http://www.w3.org/1999/xlink" x="0px"
	 y="0px" viewBox="0 0 14 14" style="enable-background:new 0 0 14 14;" xml:space="preserve">
<style type="text/css">
	.st0{fill-rule:evenodd;clip-rule:evenodd;fill:#F3D45B;}
	.st1{fill:#FFFFFF;}
</style>
<path class="st0" d="M7,14c3.9,0,7-3.1,7-7c0-3.9-3.1-7-7-7C3.1,0,0,3.1,0,7C0,10.9,3.1,14,7,14z"/>
<path class="st1" d="M7.8,12c-0.1-0.5-0.1-0.8-0.1-1.5V9.8h1.6c0.5,0,0.8,0,1.1,0.1V8.6c-0.4,0.1-0.7,0.1-1.1,0.1H7.7V8.3l0.4-0.6
	h1.3c0.5,0,0.8,0,1.1,0.1V6.6c-0.4,0.1-0.7,0.1-1.1,0.1H8.7l1.5-2.5c0.2-0.3,0.6-1,0.8-1.2H9.1C9,3.3,8.9,3.6,8.6,4.1L7,7L5.4,4.1
	C5.1,3.6,5,3.3,4.9,3H3c0.2,0.2,0.4,0.7,0.8,1.2l1.5,2.5H4.7c-0.5,0-0.8,0-1.1-0.1v1.3c0.4-0.1,0.6-0.1,1.1-0.1h1.3l0.4,0.6v0.3H4.6
	c-0.5,0-0.8,0-1.1-0.1v1.3c0.4-0.1,0.7-0.1,1.1-0.1h1.6v0.8c0,0.6,0,1-0.1,1.5H7.8z"/>
</svg>
