<svg  width="94" height="20" xmlns="http://www.w3.org/2000/svg" viewBox="0 0 359.86 567.12" style="fill: #545458;"><path d="M344.93 1.89A28.11 28.11 0 00334.76 0a27.21 27.21 0 00-16.89 5.71L179.93 111.56 42.01 5.71A27.21 27.21 0 0025.12 0a28.11 28.11 0 00-10.19 1.89c-9.09 3.53-15 11.42-15 20.13v363.34a20.91 20.91 0 008.25 16.31l154.01 159.74a27.16 27.16 0 0016.88 5.71h1.72a27.16 27.16 0 0016.88-5.71l153.94-159.74a20.91 20.91 0 008.25-16.31V22.02c0-8.71-5.86-16.6-14.93-20.13zm-170.1 530.34l-145.47-151V33.01L174.83 144.7z"></path></svg>
