<svg width="272" height="20" viewBox="0 0 272 20" fill="none" xmlns="http://www.w3.org/2000/svg">
<path d="M7.76022 7.80797C8.12022 7.40797 8.20022 6.72797 7.66022 6.24797C6.90022 5.56797 5.88022 4.98797 5.00022 4.58797C3.64022 3.98797 2.84022 5.76797 3.98022 6.22797C4.74022 6.54797 5.54022 7.12797 6.16022 7.76797C6.70022 8.32797 7.40022 8.20797 7.76022 7.80797ZM15.4802 7.24797C16.3602 5.66797 14.3602 4.84797 13.7002 6.08797C11.6002 10.068 7.16022 14.468 3.18022 15.548C1.60022 15.968 2.26022 18.128 3.84022 17.608C8.38022 16.108 12.9202 11.828 15.4802 7.24797ZM5.38022 10.988C5.64022 10.528 5.56022 9.82797 4.92022 9.48797C4.02022 8.98797 2.94022 8.66797 2.00022 8.48797C0.540224 8.20797 0.160224 10.108 1.36022 10.308C2.18022 10.448 3.10022 10.848 3.84022 11.328C4.50022 11.748 5.12022 11.468 5.38022 10.988Z" fill="#545458"/>
<path d="M34.8802 7.00797C35.7602 5.42797 33.7002 4.58797 33.0602 5.82797C31.0402 9.74797 27.0002 13.888 22.9802 14.908C21.3202 15.328 21.9602 17.608 23.6602 17.068C28.2602 15.608 32.4002 11.508 34.8802 7.00797ZM26.5402 8.62797C26.8602 8.16797 26.9002 7.40797 26.2802 6.96797C25.3202 6.28797 23.8202 5.74797 22.7602 5.44797C21.2402 5.02797 20.7402 7.04797 21.9402 7.32797C22.8802 7.54797 24.1602 8.12797 24.9002 8.80797C25.5202 9.36797 26.2202 9.08797 26.5402 8.62797Z" fill="#545458"/>
<path d="M57.0002 3.02797C57.0002 1.86797 56.0402 0.907969 54.8802 0.907969C53.7202 0.907969 52.7802 1.86797 52.7802 3.02797C52.7802 4.18797 53.7202 5.12797 54.8802 5.12797C56.0402 5.12797 57.0002 4.18797 57.0002 3.02797ZM43.9202 17.568C49.5202 15.428 51.9602 11.548 53.3602 7.54797C53.9402 5.90797 52.8002 4.68797 51.1802 4.66797C48.6402 4.62797 44.9002 4.64797 42.2602 4.76797C40.8402 4.82797 40.9802 6.78797 42.3002 6.74797C45.1802 6.64797 48.3402 6.52797 50.3002 6.58797C51.0402 6.60797 51.1002 7.10797 50.9402 7.64797C50.0402 10.588 47.4202 14.228 43.0002 15.628C41.4802 16.108 42.2202 18.208 43.9202 17.568ZM55.9002 3.02797C55.9002 3.58797 55.4402 4.02797 54.8802 4.02797C54.3202 4.02797 53.8602 3.58797 53.8602 3.02797C53.8602 2.46797 54.3202 1.98797 54.8802 1.98797C55.4402 1.98797 55.9002 2.46797 55.9002 3.02797Z" fill="#545458"/>
<path d="M73.3571 9.16797C74.0571 7.92797 72.2571 6.82797 71.5371 8.16797C70.3771 10.328 68.7971 12.188 67.0771 13.168C66.6971 13.388 66.4571 13.348 66.4771 12.908C66.4971 12.228 66.6971 6.94797 66.7171 6.16797C66.7371 4.72797 64.7171 4.70797 64.7171 6.16797C64.7171 7.34797 64.5771 12.108 64.4371 13.908C64.2971 15.628 65.7171 16.148 67.0171 15.508C69.7371 14.128 71.9771 11.648 73.3571 9.16797ZM57.6371 16.528C61.5571 14.348 63.2771 10.188 63.1371 6.40797C63.0971 5.12797 60.9971 5.02797 61.0771 6.56797C61.2571 10.388 59.4771 13.468 56.5171 14.788C54.9971 15.468 56.0971 17.388 57.6371 16.528Z" fill="#545458"/>
<path d="M89.7171 7.42797C91.0771 7.72797 91.4571 5.84797 90.0571 5.50797C88.6571 5.16797 86.5771 5.18797 84.7971 5.62797C83.3371 5.98797 83.9771 7.76797 85.0771 7.48797C86.7571 7.06797 88.2771 7.12797 89.7171 7.42797ZM90.7971 16.548C92.1171 16.208 92.0171 14.088 90.3971 14.428C88.8371 14.748 86.4371 15.068 85.3571 14.088C84.3171 13.148 83.1171 14.568 83.9371 15.468C85.3771 17.028 88.6571 17.088 90.7971 16.548ZM80.2171 17.508C80.7171 17.068 80.4771 16.448 80.5971 15.908C80.7171 15.328 81.0371 14.408 81.7771 13.108C82.2371 12.308 80.9971 11.348 80.3771 12.328C80.2971 12.468 80.0771 12.868 80.0371 12.968C79.9571 13.148 79.8771 13.208 79.8171 12.948C79.3371 11.088 80.5371 6.38797 80.8571 4.76797C81.0771 3.60797 79.1371 3.16797 78.9171 4.64797C78.5571 7.02797 76.9771 12.948 78.5771 16.888C78.9771 17.868 79.7171 17.948 80.2171 17.508Z" fill="#545458"/>
<path d="M111.757 3.66797C112.337 4.50797 113.597 3.40797 112.897 2.50797C112.497 2.00797 111.557 1.36797 111.037 1.12797C110.137 0.707968 109.237 1.84797 110.217 2.36797C110.597 2.56797 111.517 3.32797 111.757 3.66797ZM110.597 3.86797C110.217 3.34797 109.277 2.70797 108.777 2.44797C107.897 1.98797 106.977 3.08797 107.937 3.62797C108.317 3.84797 109.197 4.66797 109.417 5.00797C109.977 5.86797 111.277 4.78797 110.597 3.86797ZM107.117 7.02797C108.737 7.36797 109.177 5.30797 107.497 4.94797C105.837 4.58797 103.017 4.60797 101.117 4.88797C99.3371 5.14797 99.5971 7.26797 101.177 6.96797C103.137 6.58797 105.257 6.62797 107.117 7.02797ZM109.077 16.768C110.697 16.268 110.217 14.108 108.557 14.568C105.537 15.428 102.297 15.568 100.597 13.828C99.5171 12.728 98.2171 14.108 98.9371 15.128C100.317 17.068 105.117 18.008 109.077 16.768Z" fill="#545458"/>
<path d="M126.437 10.368C127.797 9.46797 129.897 7.96797 131.097 6.82797C131.377 6.56797 131.497 6.28797 131.497 6.00797C131.497 5.42797 130.937 4.94797 130.377 4.94797C130.137 4.94797 129.897 5.02797 129.697 5.24797C128.657 6.36797 126.977 7.76797 125.697 8.70797C125.397 7.76797 125.157 6.72797 125.157 5.66797C125.157 5.56797 125.157 5.44797 125.157 5.34797L125.177 5.26797C125.237 4.40797 125.237 3.34797 125.237 2.64797C125.237 1.94797 124.717 1.60797 124.177 1.60797C123.657 1.60797 123.117 1.94797 123.117 2.58797C123.117 2.60797 123.117 2.62797 123.117 2.64797C123.157 3.28797 123.177 4.14797 123.177 4.80797C123.177 9.94797 121.357 14.588 116.297 16.348C115.717 16.548 115.477 16.948 115.477 17.328C115.477 17.888 115.937 18.428 116.597 18.428C116.997 18.428 122.197 17.108 124.337 10.088C126.037 15.088 130.177 18.188 131.937 18.188C132.717 18.188 133.157 17.608 133.157 17.048C133.157 16.588 132.877 16.128 132.257 15.948C129.917 15.228 127.677 13.208 126.357 10.408L126.437 10.368ZM119.517 10.468C120.037 9.50797 120.457 7.72797 120.457 6.12797C120.457 5.12797 119.917 4.94797 119.497 4.94797C118.997 4.94797 118.517 5.26797 118.497 5.90797C118.457 7.40797 118.277 8.34797 117.617 9.58797C117.517 9.78797 117.457 9.98797 117.457 10.148C117.457 10.728 117.957 11.128 118.497 11.128C118.877 11.128 119.257 10.928 119.517 10.468Z" fill="#545458"/>
<path d="M151.977 3.60797C152.517 3.60797 152.797 3.22797 152.797 2.84797C152.797 2.46797 152.517 2.08797 151.977 2.08797L147.497 2.10797V1.34797C147.497 0.887969 147.037 0.667969 146.577 0.667969C146.117 0.667969 145.657 0.887969 145.657 1.34797V2.10797H142.977V1.34797C142.977 0.887969 142.517 0.667969 142.077 0.667969C141.617 0.667969 141.157 0.887969 141.157 1.34797V2.10797L136.837 2.08797C136.277 2.08797 135.997 2.46797 135.997 2.84797C135.997 3.22797 136.277 3.60797 136.837 3.60797L141.157 3.58797V4.02797C141.157 4.50797 141.617 4.74797 142.057 4.74797C142.517 4.74797 142.977 4.50797 142.977 4.02797V3.58797H145.657V4.02797C145.657 4.50797 146.117 4.74797 146.577 4.74797C147.037 4.74797 147.497 4.50797 147.497 4.02797V3.58797L151.977 3.60797ZM151.477 6.38797C151.957 6.38797 152.177 6.02797 152.177 5.66797C152.177 5.32797 151.957 4.96797 151.477 4.96797H137.077C136.617 4.96797 136.397 5.32797 136.397 5.66797C136.397 6.02797 136.617 6.38797 137.077 6.38797L139.897 6.36797C138.737 7.58797 137.757 8.14797 136.597 8.62797C136.277 8.76797 136.137 9.02797 136.137 9.28797C136.137 9.68797 136.437 10.068 136.897 10.068C137.097 10.068 138.457 9.60797 139.977 8.30797C140.717 8.30797 141.657 8.28797 142.257 8.28797C142.397 8.28797 142.497 8.34797 142.497 8.44797C142.497 8.64797 141.977 9.22797 141.437 9.66797C140.557 8.94797 140.197 8.88797 139.977 8.88797C139.477 8.88797 139.057 9.28797 139.057 9.68797C139.057 9.88797 139.177 10.088 139.457 10.228C139.657 10.328 139.837 10.428 140.017 10.548C139.097 10.968 137.917 11.268 136.437 11.308C135.937 11.308 135.677 11.688 135.677 12.068C135.677 12.428 135.937 12.808 136.497 12.808C136.517 12.808 136.557 12.808 136.577 12.808C141.137 12.508 143.157 10.428 144.257 8.86797C144.417 8.64797 144.497 8.38797 144.497 8.14797C144.497 7.60797 144.057 7.10797 143.157 7.08797C142.637 7.08797 141.877 7.08797 141.197 7.10797C141.697 6.60797 141.777 6.42797 141.797 6.36797H145.017C144.997 7.42797 144.997 9.34797 144.997 10.328C144.997 12.208 146.797 12.328 148.537 12.328C150.897 12.328 152.797 11.848 152.797 9.76797C152.797 8.96797 152.017 8.88797 151.757 8.88797C151.317 8.88797 150.897 9.10797 150.897 9.58797C150.897 10.528 150.237 10.888 148.537 10.888C147.477 10.888 146.757 10.808 146.757 10.068C146.757 9.94797 146.737 9.82797 146.737 9.68797C148.057 9.40797 149.877 8.88797 150.997 8.44797C151.437 8.26797 151.617 7.96797 151.617 7.66797C151.617 7.22797 151.217 6.78797 150.737 6.78797C150.597 6.78797 150.477 6.82797 150.337 6.88797C149.357 7.34797 147.977 7.84797 146.757 8.22797C146.757 7.56797 146.757 6.90797 146.777 6.36797L151.477 6.38797ZM152.117 15.208C152.617 15.208 152.877 14.828 152.877 14.428C152.877 14.048 152.617 13.668 152.117 13.668L147.577 13.688V13.068C147.577 12.548 147.117 12.288 146.657 12.288C146.217 12.288 145.757 12.548 145.757 13.068V13.688H143.057C143.097 13.408 143.157 12.788 143.157 12.608C143.157 12.068 142.697 11.808 142.257 11.808C141.777 11.808 141.317 12.088 141.317 12.608V12.628C141.317 12.988 141.297 13.348 141.257 13.688L136.657 13.668C136.137 13.668 135.857 14.048 135.857 14.428C135.857 14.828 136.137 15.208 136.657 15.208L140.777 15.188C140.177 16.288 138.997 17.108 136.957 17.368C136.557 17.428 136.357 17.788 136.357 18.168C136.357 18.588 136.637 19.048 137.217 19.048C137.497 19.048 141.297 18.708 142.677 15.188H145.757V18.068C145.757 18.608 146.217 18.868 146.677 18.868C147.117 18.868 147.577 18.608 147.577 18.068V15.188L152.117 15.208Z" fill="#545458"/>
<path d="M165.317 6.04797C166.177 6.10797 167.017 6.34797 167.797 6.84797C169.777 8.10797 170.317 10.728 168.897 12.968C168.237 14.008 166.697 14.868 165.177 15.208C163.457 15.608 164.077 17.628 165.837 17.168C167.817 16.648 169.777 15.408 170.717 13.868C172.457 11.008 171.957 7.32797 168.857 5.46797C166.337 3.94797 162.677 4.22797 160.217 5.92797C157.537 7.78797 156.197 11.508 157.457 13.988C158.337 15.708 160.017 16.488 161.557 15.068C163.477 13.288 165.277 9.50797 165.597 6.96797C165.657 6.56797 165.537 6.24797 165.317 6.04797ZM163.737 6.14797C163.637 6.30797 163.577 6.52797 163.557 6.76797C163.357 8.92797 161.957 12.108 160.457 13.428C159.957 13.868 159.437 13.568 159.137 12.988C158.297 11.448 159.297 8.78797 161.157 7.34797C161.917 6.76797 162.817 6.34797 163.737 6.14797Z" fill="#545458"/>
<path d="M183.697 9.84797C184.417 8.34797 185.217 6.72797 186.057 5.32797C186.957 3.86797 186.157 2.68797 184.337 3.04797C183.477 3.20797 182.257 3.50797 181.457 3.54797C180.257 3.62797 180.197 5.48797 181.517 5.44797C182.337 5.42797 183.097 5.16797 183.877 4.96797C184.177 4.88797 184.117 5.04797 183.997 5.32797C183.437 6.58797 182.517 8.40797 181.817 9.90797C180.717 10.028 179.597 10.308 178.537 10.768C176.237 11.788 175.497 13.868 176.517 15.148C177.377 16.208 179.137 16.088 180.337 15.148C181.477 14.268 182.157 13.028 182.897 11.488C184.497 11.508 186.077 11.868 187.557 12.488C186.937 13.708 185.897 14.948 184.397 15.868C183.097 16.668 184.097 18.228 185.497 17.408C187.297 16.348 188.557 14.848 189.297 13.348C190.097 13.828 190.817 14.368 191.477 14.968C192.617 16.008 193.977 14.168 192.717 13.188C191.937 12.588 190.997 11.988 189.957 11.488C190.257 10.168 190.197 8.96797 189.757 8.16797C189.097 6.92797 187.297 7.68797 187.857 8.62797C188.177 9.16797 188.257 9.90797 188.137 10.728C186.777 10.248 185.297 9.90797 183.797 9.84797H183.697ZM180.957 11.648C180.497 12.468 179.957 13.288 179.297 13.788C178.937 14.068 178.217 14.188 177.977 13.848C177.637 13.348 178.577 12.508 179.097 12.248C179.837 11.888 180.437 11.728 180.957 11.648Z" fill="#545458"/>
<path d="M210.657 4.12797C211.277 4.12797 211.597 3.68797 211.597 3.24797C211.597 2.78797 211.277 2.34797 210.657 2.34797H204.137C203.537 2.34797 203.217 2.80797 203.217 3.26797C203.217 3.70797 203.517 4.12797 204.137 4.12797H210.657ZM209.577 12.888C209.557 11.608 209.557 10.148 209.557 8.60797H211.937C212.557 8.60797 212.877 8.16797 212.877 7.74797C212.877 7.30797 212.557 6.86797 211.937 6.86797H203.457C202.857 6.86797 202.537 7.32797 202.537 7.76797C202.537 8.18797 202.837 8.60797 203.457 8.60797H207.697C207.697 10.928 207.657 13.388 207.657 15.328C207.657 16.208 207.037 16.468 206.257 16.468C205.857 16.468 205.417 16.408 204.997 16.328C204.937 16.328 204.877 16.308 204.837 16.308C204.317 16.308 204.037 16.768 204.037 17.248C204.037 18.128 204.657 18.348 206.177 18.348C208.797 18.348 209.617 16.868 209.617 15.708C209.617 15.688 209.617 15.688 209.617 15.668L209.577 12.888ZM201.857 2.96797C202.037 2.74797 202.117 2.52797 202.117 2.30797C202.117 1.76797 201.637 1.30797 201.117 1.30797C200.857 1.30797 200.577 1.44797 200.357 1.74797C199.277 3.28797 198.017 4.24797 196.477 5.10797C196.017 5.36797 195.837 5.70797 195.837 6.04797C195.837 6.54797 196.257 7.00797 196.817 7.00797C197.797 7.00797 200.897 4.14797 201.857 2.96797ZM198.477 17.708C198.477 17.728 198.477 17.728 198.477 17.748C198.477 18.308 198.937 18.588 199.417 18.588C199.897 18.588 200.397 18.288 200.417 17.708L200.517 9.04797C202.457 7.16797 202.557 6.74797 202.557 6.46797C202.557 5.92797 202.057 5.44797 201.537 5.44797C201.277 5.44797 201.017 5.56797 200.817 5.84797C199.457 7.78797 197.857 9.14797 196.097 10.128C195.717 10.328 195.577 10.648 195.577 10.968C195.577 11.468 195.957 11.948 196.517 11.948C196.737 11.948 197.097 11.888 198.657 10.668L198.477 17.708Z" fill="#545458"/>
<path d="M232.417 11.128C232.217 9.42797 230.837 7.54797 229.417 6.48797C228.217 5.58797 227.137 7.06797 228.097 7.72797C229.177 8.46797 229.997 10.008 230.317 11.608C230.597 12.988 232.577 12.588 232.417 11.128ZM223.677 14.428C223.897 14.068 224.257 13.448 224.457 12.888C224.837 11.848 223.177 11.008 222.637 12.168C222.497 12.488 222.217 13.008 221.977 13.348C221.537 13.948 221.277 13.888 220.757 13.388C219.637 12.308 219.257 10.328 219.177 8.22797C219.137 7.30797 219.217 7.26797 219.177 6.48797C219.117 4.98797 217.177 5.24797 217.137 6.50797C217.117 7.22797 217.157 7.58797 217.237 8.72797C217.397 11.248 218.057 13.568 219.497 15.128C220.617 16.328 222.397 16.508 223.677 14.428Z" fill="#545458"/>
<path d="M244.297 6.60797C244.317 7.38797 244.357 8.16797 244.397 8.92797C242.857 9.22797 241.857 9.22797 241.277 9.10797C239.677 8.76797 239.437 10.828 240.857 11.028C241.857 11.168 242.917 11.108 244.497 10.808C244.537 11.428 244.577 11.988 244.617 12.468C244.657 12.928 244.697 13.348 244.717 13.768C243.457 13.548 242.117 13.588 240.897 14.108C238.717 15.028 238.837 17.268 240.737 18.208C243.197 19.428 245.637 18.088 246.337 16.388C246.877 16.708 247.377 17.088 247.797 17.468C249.057 18.628 250.357 16.808 249.017 15.708C248.397 15.208 247.537 14.668 246.537 14.288C246.497 13.568 246.437 12.848 246.377 12.308C246.317 11.728 246.277 11.108 246.237 10.428C246.817 10.288 247.457 10.108 248.157 9.90797C249.937 9.40797 249.177 7.56797 247.697 8.04797C247.157 8.22797 246.657 8.36797 246.177 8.50797C246.157 7.76797 246.157 7.02797 246.157 6.28797C246.617 6.20797 247.117 6.10797 247.657 6.02797C249.397 5.74797 248.857 3.88797 247.537 4.18797C247.057 4.28797 246.597 4.40797 246.177 4.48797C246.197 3.68797 246.237 2.88797 246.297 2.16797C246.377 1.00797 244.297 0.647969 244.257 2.18797C244.237 2.82797 244.237 3.76797 244.257 4.82797C242.897 5.02797 241.977 5.06797 241.157 4.96797C239.337 4.74797 239.417 6.82797 240.957 6.86797C242.057 6.88797 243.057 6.78797 244.097 6.62797L244.297 6.60797ZM244.537 15.568C244.237 16.688 242.677 17.288 241.457 16.688C240.897 16.408 240.997 15.768 241.517 15.548C242.397 15.168 243.457 15.228 244.537 15.568Z" fill="#545458"/>
<path d="M264.556 13.808C264.076 14.948 263.236 16.068 262.276 16.748C260.536 17.988 262.276 19.408 263.616 18.348C265.736 16.648 267.856 12.408 266.076 9.60797C266.056 9.16797 266.016 8.74797 266.016 8.46797C266.016 7.88797 265.996 7.26797 265.976 6.62797C266.496 6.60797 266.976 6.58797 267.436 6.58797C268.676 6.60797 269.156 6.60797 270.576 6.72797C272.176 6.84797 272.256 4.72797 270.576 4.68797C269.216 4.66797 268.516 4.68797 267.536 4.68797C267.096 4.68797 266.576 4.70797 265.996 4.74797C265.996 4.64797 266.016 4.54797 266.016 4.44797C266.056 3.90797 266.116 2.98797 266.096 2.52797C266.016 1.26797 263.996 1.12797 263.996 2.58797C263.996 3.22797 264.116 3.30797 264.096 4.54797C264.096 4.64797 264.096 4.78797 264.096 4.90797C262.336 5.06797 260.536 5.28797 259.536 5.44797C258.696 5.58797 257.396 5.72797 256.596 5.86797C255.016 6.12797 255.416 8.12797 256.756 7.88797C257.356 7.78797 258.296 7.52797 259.736 7.30797C260.776 7.14797 262.436 6.90797 264.116 6.74797C264.136 7.32797 264.156 7.92797 264.176 8.36797C263.636 8.28797 263.036 8.36797 262.456 8.54797C261.236 8.92797 260.156 10.368 260.856 12.308C261.496 14.108 263.236 14.488 264.556 13.808ZM264.536 10.548C264.656 10.708 264.716 10.888 264.656 11.308C264.456 12.728 262.716 12.728 262.356 11.648C262.136 10.968 262.456 10.348 262.936 10.128C263.356 9.92797 263.936 9.96797 264.216 10.208C264.336 10.308 264.436 10.428 264.536 10.548Z" fill="#545458"/>
</svg>
