<svg height="29" viewBox="0 0 153 23" fill="#fff" xmlns="http://www.w3.org/2000/svg">
        <g clip-path="url(#clip0_4709_13626)">
            <path d="M4.48995 13.02C3.43995 12.46 2.16996 12.02 1.04996 11.92C-0.580045 11.78 -0.280045 9.19002 1.70996 9.41002C2.98996 9.55002 4.47995 9.86002 5.73995 10.43C6.63995 10.82 6.81996 11.75 6.51996 12.39C6.21996 13.06 5.41995 13.51 4.48995 13.01V13.02ZM3.52996 22.49C1.39996 23.19 0.509955 20.28 2.63996 19.72C7.99996 18.27 13.98 12.34 16.81 6.98002C17.7 5.31002 20.39 6.41002 19.21 8.54002C15.76 14.71 9.64996 20.47 3.53996 22.49H3.52996ZM6.54996 7.98002C5.53996 7.33002 4.30996 6.82002 3.21996 6.63002C1.57996 6.38002 2.07996 3.80002 4.04996 4.17002C5.32996 4.42002 6.83996 4.87002 8.04996 5.53002C8.90996 5.99002 9.00996 6.91002 8.65996 7.54002C8.30996 8.18002 7.42996 8.55002 6.54996 7.98002Z" fill="#fff"></path>
            <path d="M28.3601 10.64C27.3601 9.71999 25.6401 8.93999 24.3701 8.64999C22.7501 8.26999 23.4301 5.54999 25.4701 6.11999C26.9001 6.51999 28.9201 7.24999 30.2101 8.16999C31.0401 8.75999 30.9901 9.78999 30.5601 10.41C30.1301 11.03 29.1901 11.41 28.3501 10.65L28.3601 10.64ZM26.4401 21.76C24.1501 22.49 23.2901 19.42 25.5201 18.85C30.9301 17.48 36.3701 11.9 39.0901 6.61999C39.9501 4.94999 42.7301 6.07999 41.5401 8.20999C38.2001 14.27 32.6301 19.79 26.4301 21.76H26.4401Z" fill="#fff"></path>
            <path d="M48.1199 19.82C54.0699 17.93 57.5999 13.03 58.8099 9.07C59.0299 8.34 58.9499 7.67 57.9499 7.64C55.3099 7.56 51.0599 7.72 47.1799 7.86C45.3999 7.91 45.2099 5.27 47.1299 5.19C50.6799 5.03 55.7199 5 59.1399 5.06C61.3199 5.09 62.8599 6.73 62.0699 8.94C60.1899 14.33 56.8999 19.55 49.3599 22.43C47.0699 23.29 46.0699 20.46 48.1199 19.82ZM64.12 5.68C62.56 5.68 61.2899 4.41 61.2899 2.85C61.2899 1.29 62.56 0 64.12 0C65.68 0 66.9699 1.29 66.9699 2.85C66.9699 4.41 65.68 5.68 64.12 5.68ZM64.12 1.45C63.37 1.45 62.7499 2.1 62.7499 2.85C62.7499 3.6 63.37 4.2 64.12 4.2C64.87 4.2 65.4899 3.61 65.4899 2.85C65.4899 2.09 64.87 1.45 64.12 1.45Z" fill="#fff"></path>
            <path d="M64.58 19.2599C68.57 17.4799 70.96 11.9199 70.72 6.76992C70.61 4.69992 73.44 4.82992 73.49 6.54992C73.68 11.6399 71.84 18.5899 66.08 21.5899C64.01 22.7499 62.53 20.1599 64.57 19.2499L64.58 19.2599ZM79.5 21.4399C77.75 22.2999 75.84 21.5999 76.03 19.2899C76.22 16.8699 76.41 7.54992 76.41 5.95992C76.41 3.98992 79.13 4.01992 79.1 5.95992C79.07 7.00992 78.8 17.0299 78.78 17.9399C78.75 18.5299 79.08 18.5899 79.59 18.2899C81.91 16.9699 84.03 14.4699 85.6 11.5599C86.57 9.75992 88.99 11.2399 88.05 12.9099C86.19 16.2499 83.18 19.5899 79.51 21.4499L79.5 21.4399Z" fill="#fff"></path>
            <path d="M93.2399 19.82C99.1899 17.93 102.72 13.03 103.93 9.07C104.15 8.34 104.07 7.67 103.07 7.64C100.43 7.56 96.1799 7.72 92.2999 7.86C90.5199 7.91 90.3299 5.27 92.2499 5.19C95.7999 5.03 100.84 5 104.26 5.06C106.44 5.09 107.98 6.73 107.19 8.94C105.31 14.33 102.02 19.55 94.4799 22.43C92.1899 23.29 91.1899 20.46 93.2399 19.82ZM109.24 5.68C107.68 5.68 106.41 4.41 106.41 2.85C106.41 1.29 107.68 0 109.24 0C110.8 0 112.09 1.29 112.09 2.85C112.09 4.41 110.8 5.68 109.24 5.68ZM109.24 1.45C108.49 1.45 107.87 2.1 107.87 2.85C107.87 3.6 108.49 4.2 109.24 4.2C109.99 4.2 110.61 3.61 110.61 2.85C110.61 2.09 109.99 1.45 109.24 1.45Z" fill="#fff"></path>
            <path d="M117.23 22.54C115.02 23.21 114.03 20.55 116.18 19.98C121.49 18.55 124.91 15.29 126.12 11.87C126.39 11.14 126.25 10.71 125.23 10.69C122.48 10.64 117.47 10.72 114.59 10.82C112.68 10.9 112.44 8.34002 114.51 8.29002C117.98 8.21002 122.51 8.18002 126.17 8.21002C128.86 8.24002 130.18 9.75002 129.08 12.38C127.19 16.88 123.91 20.49 117.23 22.53V22.54ZM125.79 5.74002C123.26 5.74002 119.54 5.82002 116.63 5.74002C114.85 5.69002 114.74 3.21002 116.82 3.24002C119.41 3.27002 123.18 3.27002 125.9 3.24002C126.82 3.24002 127.35 3.83002 127.35 4.48002C127.35 5.13002 126.89 5.75002 125.79 5.75002V5.74002Z" fill="#fff"></path>
            <path d="M138.34 10.64C137.34 9.71999 135.62 8.93999 134.35 8.64999C132.73 8.26999 133.41 5.54999 135.45 6.11999C136.88 6.51999 138.9 7.24999 140.19 8.16999C141.03 8.75999 140.97 9.78999 140.54 10.41C140.11 11.03 139.17 11.41 138.33 10.65L138.34 10.64ZM136.67 21.76C134.38 22.49 133.52 19.42 135.75 18.85C141.16 17.48 146.6 11.9 149.32 6.61999C150.18 4.94999 152.96 6.07999 151.77 8.20999C148.43 14.27 142.86 19.79 136.66 21.76H136.67Z" fill="#fff"></path>
        </g>
    </svg>