<svg height="30" viewBox="0 0 177 25" fill="none" xmlns="http://www.w3.org/2000/svg">
        <g clip-path="url(#clip0_4710_13681)">
            <path d="M1.48005 4.47L7.08005 4.44V5.09C7.08005 5.76 7.70005 6.11 8.32005 6.11C8.94005 6.11 9.56005 5.76 9.56005 5.09V4.44H13.76V5.09C13.76 5.76 14.38 6.11 15 6.11C15.62 6.11 16.24 5.76 16.24 5.09V4.44L22.0301 4.47C22.8101 4.47 23.21 3.9 23.21 3.34C23.21 2.78 22.8101 2.24 22.0301 2.24L16.24 2.27V1.05C16.24 0.35 15.62 0 15 0C14.38 0 13.76 0.35 13.76 1.05V2.26H9.56005V1.05C9.56005 0.35 8.94005 0 8.32005 0C7.70005 0 7.08005 0.35 7.08005 1.05V2.26L1.48005 2.23C0.700049 2.23 0.300049 2.8 0.300049 3.33C0.300049 3.9 0.700049 4.46 1.48005 4.46V4.47Z" fill="#fff"></path>
            <path d="M22.62 10.45L18.07 10.48V8.53997H20.52C21.19 8.53997 21.52 8.02997 21.52 7.48997C21.52 6.94997 21.2 6.46997 20.52 6.46997H2.98999C2.33999 6.46997 1.98999 6.97997 1.98999 7.48997C1.98999 8.02997 2.33999 8.53997 2.98999 8.53997H5.40999V10.48L0.98999 10.45C0.31999 10.45 -0.0100098 10.96 -0.0100098 11.47C-0.0100098 12.01 0.30999 12.52 0.98999 12.52L5.40999 12.49V14.56L2.98999 14.53C2.33999 14.53 1.98999 15.04 1.98999 15.55C1.98999 16.09 2.33999 16.6 2.98999 16.6L10.48 16.57L10.45 18.19L2.20999 18.16C1.50999 18.16 1.12999 18.7 1.12999 19.24C1.12999 19.81 1.50999 20.34 2.20999 20.34L10.45 20.29V22.88C10.45 23.72 11.07 24.12 11.66 24.12C12.31 24.12 12.93 23.69 12.93 22.88L12.9 20.29L21.3 20.34C22.03 20.34 22.38 19.8 22.38 19.24C22.38 18.68 22.03 18.16 21.3 18.16L12.9 18.19V16.57L20.52 16.6C21.19 16.6 21.52 16.09 21.52 15.55C21.52 15.01 21.2 14.53 20.52 14.53L18.07 14.56V12.49L22.62 12.52C23.29 12.52 23.64 12.01 23.64 11.47C23.64 10.93 23.29 10.45 22.62 10.45ZM10.47 14.57H7.63999V12.5H10.47V14.57ZM10.47 10.48H7.63999V8.50997H10.49L10.46 10.48H10.47ZM15.83 14.57H12.87V12.5H15.83V14.57ZM15.83 10.48H12.87V8.50997H15.83V10.48Z" fill="#fff"></path>
            <path d="M32.98 7.17993C33 7.22993 33.04 7.27993 33.08 7.32993C33.09 7.34993 33.1 7.36993 33.11 7.37993C33.31 7.56993 33.48 7.76993 33.66 7.99993C33.84 8.21993 34.05 8.50993 34.14 8.87993C34.18 9.02993 34.25 9.15993 34.34 9.26993C34.35 9.28993 34.36 9.30993 34.38 9.31993C34.41 9.35993 34.45 9.38993 34.49 9.41993C34.51 9.43993 34.53 9.45993 34.55 9.46993C34.59 9.49993 34.63 9.51993 34.67 9.53993C34.69 9.54993 34.72 9.55993 34.74 9.56993C34.77 9.57993 34.8 9.59993 34.84 9.60993C34.86 9.60993 34.87 9.60993 34.89 9.60993C34.96 9.61993 35.03 9.63993 35.1 9.63993C35.16 9.63993 35.23 9.63993 35.29 9.61993C35.35 9.60993 35.41 9.58993 35.47 9.57993H35.51C35.57 9.54993 35.62 9.52993 35.67 9.49993L35.71 9.47993C35.76 9.44993 35.81 9.41993 35.86 9.37993H35.88C35.88 9.37993 35.97 9.29993 36.01 9.24993C36.05 9.20993 36.07 9.16993 36.1 9.12993C36.12 9.10993 36.14 9.08993 36.15 9.05993C36.18 9.00993 36.2 8.96993 36.22 8.91993C36.23 8.88993 36.24 8.86993 36.25 8.83993C36.27 8.78993 36.28 8.73993 36.29 8.68993C36.29 8.66993 36.29 8.63993 36.29 8.61993C36.29 8.55993 36.29 8.49993 36.29 8.43993C36.29 8.35993 36.27 8.27993 36.25 8.18993C35.98 7.28993 35.18 6.56993 34.95 6.37993C34.81 6.26993 34.67 6.18993 34.53 6.13993C34.16 5.99993 33.8 6.03993 33.51 6.16993C33.45 6.19993 33.4 6.21993 33.35 6.24993H33.33C33.33 6.24993 33.24 6.32993 33.19 6.35993C33.19 6.35993 33.13 6.40993 33.11 6.42993C33.1 6.43993 33.09 6.45993 33.08 6.46993C33.06 6.48993 33.04 6.51993 33.03 6.54993C33 6.59993 32.98 6.63993 32.96 6.68993C32.94 6.72993 32.93 6.76993 32.92 6.80993C32.92 6.83993 32.91 6.86993 32.91 6.89993C32.91 6.95993 32.91 7.01993 32.93 7.07993C32.93 7.10993 32.95 7.13993 32.97 7.16993L32.98 7.17993Z" fill="#fff"></path>
            <path d="M43.9 11.4799C43.9 11.4299 43.9 11.3699 43.89 11.3099C43.87 11.2199 43.84 11.1399 43.81 11.0599C43.79 10.9899 43.77 10.9199 43.75 10.8599C43.7 10.7099 43.63 10.5799 43.55 10.4399C43.52 10.3799 43.49 10.3199 43.45 10.2699C43.35 10.1199 43.23 9.9799 43.1 9.8399C43.07 9.8099 43.04 9.7699 43.01 9.7299C42.83 9.5599 42.64 9.3999 42.42 9.2599C42.22 9.1299 42 9.0299 41.77 8.9399C41.73 8.9199 41.69 8.9199 41.65 8.8999C41.47 8.8299 41.29 8.7699 41.1 8.7299C41.02 8.7099 40.93 8.6999 40.85 8.6799C40.7 8.6499 40.56 8.6299 40.4 8.6099C40.29 8.5999 40.18 8.5999 40.07 8.5899C39.93 8.5899 39.79 8.5799 39.65 8.5899C39.53 8.5899 39.41 8.5999 39.29 8.6099C39.15 8.6199 39 8.6299 38.85 8.6499C38.74 8.6699 38.62 8.6899 38.51 8.7099C38.35 8.7399 38.18 8.7699 38.02 8.8099C37.93 8.8299 37.85 8.8599 37.76 8.8799C37.3 8.9999 36.83 9.1399 36.34 9.3299C35.97 9.4699 35.6 9.6399 35.23 9.8099H35.21C34.38 10.2199 33.56 10.6799 32.76 11.1399C32.5 11.2899 32.22 11.4499 31.95 11.5999C31.86 11.4299 31.77 11.2499 31.69 11.0999C31.65 11.0099 31.61 10.9199 31.57 10.8299C31.48 10.6199 31.38 10.4099 31.3 10.1999C31.23 10.0099 31.16 9.8299 31.09 9.6399C31.01 9.4099 30.92 9.1699 30.83 8.9399C30.54 8.2299 29.93 8.0699 29.46 8.2199C28.98 8.3799 28.57 8.8899 28.74 9.5599C28.85 9.9399 29 10.3399 29.2 10.7699C29.38 11.1599 29.59 11.5999 29.8 11.9799C29.87 12.1099 29.94 12.2399 30 12.3799C30.03 12.4499 30.07 12.5199 30.1 12.5999C30.02 12.6399 29.95 12.6699 29.87 12.7099C29.59 12.8499 29.31 12.9799 29.03 13.0999C28.92 13.1499 28.82 13.1999 28.71 13.2399C28.34 13.3899 27.96 13.5299 27.58 13.6399C27.54 13.6499 27.5 13.6699 27.46 13.6799C27.38 13.6999 27.32 13.7399 27.24 13.7699C27.21 13.7799 27.17 13.7899 27.14 13.8099C27.08 13.8399 27.04 13.8699 26.99 13.8999C26.95 13.9299 26.91 13.9499 26.87 13.9799C26.83 14.0099 26.79 14.0499 26.76 14.0799C26.73 14.1099 26.7 14.1499 26.67 14.1899C26.64 14.2299 26.61 14.2599 26.59 14.2999C26.55 14.3699 26.52 14.4399 26.5 14.5099C26.5 14.5199 26.49 14.5299 26.49 14.5399C26.49 14.5699 26.49 14.6099 26.49 14.6399C26.49 14.6699 26.49 14.7099 26.49 14.7399C26.49 14.7899 26.49 14.8399 26.49 14.8799C26.49 14.9099 26.49 14.9399 26.51 14.9599C26.53 15.0599 26.56 15.1599 26.61 15.2499C26.61 15.2599 26.62 15.2799 26.63 15.2899C26.65 15.3299 26.69 15.3699 26.72 15.4099C26.74 15.4399 26.76 15.4699 26.79 15.4899C26.81 15.5099 26.83 15.5399 26.85 15.5599C26.86 15.5699 26.88 15.5799 26.89 15.5899C26.93 15.6299 26.98 15.6599 27.02 15.6899C27.08 15.7299 27.14 15.7599 27.2 15.7799C27.24 15.7999 27.28 15.8099 27.32 15.8199C27.37 15.8299 27.41 15.8399 27.46 15.8499C27.5 15.8499 27.54 15.8499 27.58 15.8599C27.63 15.8599 27.68 15.8599 27.73 15.8599C27.76 15.8599 27.8 15.8499 27.83 15.8399C27.88 15.8399 27.94 15.8299 27.99 15.8099C28.98 15.5099 30 15.0499 31.12 14.4199C31.63 15.3599 32.18 16.3699 32.71 17.3699C33.98 19.7699 34.76 21.5699 35.05 22.7099C35.08 22.8199 35.11 22.9099 35.15 22.9899C35.15 23.0099 35.16 23.0299 35.17 23.0399C35.21 23.1299 35.25 23.1999 35.3 23.2699C35.31 23.2899 35.32 23.2999 35.33 23.3199C35.38 23.3899 35.44 23.4599 35.49 23.5099L35.51 23.5299C35.59 23.6099 35.68 23.6699 35.75 23.7099C35.79 23.7299 35.84 23.7499 35.89 23.7599C35.91 23.7599 35.93 23.7799 35.95 23.7799C36.01 23.7999 36.06 23.8099 36.12 23.8199C36.15 23.8199 36.17 23.8199 36.2 23.8299C36.23 23.8299 36.25 23.8299 36.28 23.8299C36.3 23.8299 36.32 23.8299 36.34 23.8199C36.41 23.8199 36.47 23.7999 36.54 23.7899C36.57 23.7899 36.59 23.7899 36.62 23.7799C36.92 23.6799 37.16 23.4399 37.29 23.1299C37.44 22.7699 37.44 22.3399 37.29 21.8799C36.85 20.5299 35.67 18.3099 34.69 16.5199C34.3 15.8099 33.9 15.0899 33.52 14.3999C33.32 14.0399 33.12 13.6799 32.93 13.3399L33.19 13.1799C34.39 12.4499 35.63 11.6899 36.96 11.1599C38.86 10.4099 40.22 10.3199 41.02 10.8899C41.75 11.4399 41.84 12.3499 41.24 13.1599C40.74 13.8499 39.89 14.3299 38.91 14.4899C38.68 14.5299 38.46 14.5399 38.23 14.5399C38.14 14.5399 38.06 14.5299 37.97 14.5199C37.87 14.5199 37.77 14.5099 37.67 14.4899C37.57 14.4799 37.47 14.4499 37.38 14.4299C37.29 14.4099 37.2 14.3799 37.11 14.3599C37.02 14.3299 36.94 14.2999 36.86 14.2699C36.74 14.2199 36.64 14.1599 36.53 14.0999C36.49 14.0799 36.45 14.0599 36.41 14.0299C36.38 14.0099 36.35 13.9999 36.32 13.9799C36.25 13.9399 36.18 13.8999 36.11 13.8799C36.07 13.8599 36.02 13.8499 35.98 13.8399C35.91 13.8199 35.84 13.8099 35.77 13.7999C35.75 13.7999 35.72 13.7899 35.7 13.7899C35.63 13.7899 35.56 13.7899 35.49 13.8099C35.49 13.8099 35.47 13.8099 35.47 13.8199C35.35 13.8499 35.24 13.8999 35.14 13.9699C35.12 13.9799 35.1 13.9899 35.08 13.9999C34.97 14.0799 34.89 14.1799 34.81 14.2899C34.81 14.2999 34.79 14.3099 34.78 14.3199C34.7 14.4399 34.65 14.5699 34.62 14.7099C34.61 14.7799 34.6 14.8499 34.59 14.9099C34.59 14.9199 34.59 14.9299 34.59 14.9499C34.59 15.0099 34.59 15.0699 34.59 15.1299V15.1699C34.59 15.1699 34.59 15.2199 34.6 15.2499C34.6 15.2699 34.62 15.2799 34.62 15.2999C34.65 15.3999 34.69 15.4899 34.75 15.5799C34.77 15.6099 34.79 15.6299 34.81 15.6599C34.87 15.7299 34.94 15.7999 35.03 15.8499C35.05 15.8599 35.05 15.8799 35.07 15.8899C35.09 15.8999 35.12 15.9099 35.15 15.9299C35.4 16.0699 35.66 16.1899 35.93 16.2899C35.96 16.2999 35.99 16.3199 36.02 16.3299C35.99 16.3299 35.97 16.2999 35.94 16.2899C36.92 16.6399 38.05 16.7399 39.14 16.5799C39.07 16.5899 39.01 16.6099 38.94 16.6199C39.06 16.6099 39.18 16.5899 39.3 16.5699C39.33 16.5699 39.36 16.5499 39.4 16.5499C39.46 16.5399 39.51 16.5299 39.57 16.5099H39.59C39.86 16.4499 40.13 16.3799 40.39 16.2899C40.46 16.2599 40.53 16.2299 40.6 16.2099C40.89 16.0999 41.17 15.9699 41.43 15.8199C41.5 15.7799 41.55 15.7399 41.62 15.6999C41.87 15.5399 42.12 15.3699 42.34 15.1699C42.38 15.1299 42.42 15.0899 42.46 15.0499C42.67 14.8499 42.87 14.6299 43.05 14.3899C43.06 14.3699 43.09 14.3499 43.1 14.3299C43.2 14.1899 43.26 14.0499 43.34 13.9099C43.39 13.8199 43.45 13.7299 43.5 13.6399C43.57 13.4899 43.62 13.3499 43.67 13.1999C43.71 13.0999 43.75 13.0099 43.77 12.9099C43.81 12.7699 43.83 12.6199 43.86 12.4799C43.88 12.3799 43.9 12.2799 43.9 12.1699C43.91 12.0299 43.9 11.8999 43.9 11.7699C43.9 11.6599 43.9 11.5599 43.87 11.4499L43.9 11.4799ZM43.83 11.1599C43.84 11.2099 43.87 11.2599 43.88 11.3199C43.88 11.3499 43.88 11.3899 43.88 11.4199C43.87 11.3299 43.84 11.2499 43.82 11.1599H43.83Z" fill="#fff"></path>
            <path d="M64.97 13.4999C64.97 13.4999 64.91 13.4199 64.88 13.3799C64.77 13.2199 64.65 13.0699 64.53 12.9099C64.48 12.8499 64.42 12.7899 64.37 12.7299C64.25 12.5999 64.14 12.4599 64.01 12.3299C63.97 12.2899 63.93 12.2499 63.89 12.2099C63.2 11.5199 62.38 10.8699 61.46 10.3499C61.43 10.3399 61.41 10.3299 61.39 10.3199C61.29 10.2699 61.2 10.2299 61.11 10.1999C61.06 10.1899 61.01 10.1699 60.97 10.1599C60.88 10.1399 60.79 10.1299 60.71 10.1299C60.65 10.1299 60.6 10.1299 60.55 10.1499C60.52 10.1499 60.49 10.1599 60.46 10.1699C60.4 10.1799 60.35 10.1999 60.31 10.2199H60.29C60.29 10.2199 60.2 10.2699 60.17 10.2799C60.16 10.2799 60.15 10.2999 60.13 10.3099C60.1 10.3299 60.08 10.3499 60.05 10.3699C59.99 10.4199 59.94 10.4699 59.89 10.5299C59.87 10.5599 59.85 10.5799 59.83 10.6099C59.81 10.6499 59.79 10.6799 59.77 10.7199C59.76 10.7499 59.75 10.7799 59.73 10.8099C59.71 10.8699 59.69 10.9399 59.68 11.0099C59.68 11.0399 59.67 11.0799 59.67 11.1099C59.67 11.1199 59.67 11.1399 59.67 11.1499C59.67 11.1799 59.68 11.2099 59.68 11.2399C59.68 11.2599 59.68 11.2799 59.68 11.2999C59.68 11.3499 59.7 11.3899 59.72 11.4299C59.72 11.4499 59.73 11.4599 59.74 11.4799C59.76 11.5299 59.79 11.5699 59.82 11.6099L59.84 11.6299C59.92 11.7299 60.02 11.8199 60.15 11.8899C60.19 11.9099 60.24 11.9499 60.29 11.9699C60.41 12.0399 60.52 12.1099 60.63 12.1799C60.71 12.2399 60.8 12.2999 60.89 12.3599C60.96 12.4099 61.02 12.4599 61.08 12.5199C61.45 12.8199 61.84 13.1999 62.23 13.6999C62.52 14.0699 62.81 14.5099 63.08 15.0099L63.1 15.0499C63.23 15.2999 63.37 15.5599 63.49 15.8499C63.51 15.8999 63.54 15.9299 63.56 15.9699C63.59 16.0199 63.62 16.0699 63.65 16.1099C63.68 16.1499 63.72 16.1899 63.75 16.2299C63.78 16.2599 63.81 16.2899 63.85 16.3199C63.89 16.3499 63.93 16.3799 63.97 16.3999C64.01 16.4199 64.05 16.4399 64.09 16.4499C64.16 16.4799 64.24 16.4999 64.31 16.5099C64.35 16.5099 64.38 16.5199 64.42 16.5199C64.44 16.5199 64.46 16.5199 64.47 16.5199C64.51 16.5199 64.55 16.5199 64.58 16.5099H64.62C64.68 16.4999 64.74 16.4799 64.81 16.4699H64.83C64.83 16.4699 64.9 16.4499 64.93 16.4299C64.96 16.4199 64.99 16.3999 65.02 16.3799C65.55 16.0999 65.92 15.4699 65.62 14.6999C65.46 14.2999 65.24 13.8899 64.96 13.4799L64.97 13.4999Z" fill="#fff"></path>
            <path d="M57.91 12.11C57.88 12.06 57.85 11.99 57.82 11.94C57.74 11.83 57.65 11.73 57.56 11.64C57.5 11.57 57.44 11.49 57.38 11.43C57.37 11.42 57.36 11.4 57.34 11.39C57.05 11.14 56.71 10.96 56.33 10.84C56.29 10.83 56.25 10.82 56.21 10.81C56.05 10.77 55.89 10.74 55.72 10.72C55.67 10.72 55.61 10.72 55.56 10.71C55.48 10.71 55.41 10.69 55.33 10.69C55.2 10.69 55.07 10.69 54.94 10.71L54.18 10.78C54.44 9.75004 54.73 8.34004 54.82 7.51004C54.84 7.35004 54.82 7.20004 54.79 7.07004C54.79 7.04004 54.78 7.01004 54.77 6.98004C54.75 6.93004 54.73 6.89004 54.71 6.85004C54.69 6.82004 54.68 6.79004 54.66 6.76004C54.63 6.72004 54.61 6.68004 54.57 6.65004C54.55 6.62004 54.52 6.60004 54.5 6.58004C54.47 6.56004 54.45 6.53004 54.42 6.51004C54.42 6.51004 54.4 6.50004 54.39 6.49004C54.32 6.45004 54.25 6.41004 54.18 6.38004C54.14 6.36004 54.1 6.35004 54.06 6.34004C54.01 6.33004 53.96 6.32004 53.91 6.31004C53.86 6.31004 53.81 6.29004 53.76 6.29004C53.69 6.29004 53.62 6.29004 53.54 6.29004C53.49 6.29004 53.45 6.31004 53.4 6.32004C53.35 6.33004 53.3 6.35004 53.26 6.36004C53.23 6.37004 53.19 6.37004 53.16 6.39004C53.11 6.41004 53.07 6.44004 53.03 6.47004C53 6.49004 52.97 6.50004 52.95 6.52004C52.9 6.55004 52.86 6.59004 52.82 6.63004C52.8 6.65004 52.78 6.67004 52.76 6.69004C52.72 6.73004 52.69 6.78004 52.66 6.83004C52.65 6.85004 52.64 6.88004 52.62 6.90004C52.59 6.96004 52.56 7.01004 52.54 7.07004C52.52 7.16004 52.49 7.24004 52.48 7.33004C52.47 7.47004 52.45 7.61004 52.43 7.75004C52.43 7.83004 52.41 7.91004 52.4 7.99004C52.36 8.30004 52.31 8.59004 52.26 8.88004C52.26 8.92004 52.25 8.95004 52.24 8.99004C52.09 9.84004 51.91 10.57 51.79 11.02L50.64 11.15C50.23 11.19 49.85 11.2 49.48 11.22C49.1 11.23 48.73 11.25 48.37 11.29C48.03 11.32 47.78 11.47 47.59 11.66C47.57 11.68 47.55 11.69 47.53 11.71C47.46 11.8 47.41 11.89 47.37 11.99C47.36 12.02 47.34 12.04 47.33 12.07C47.29 12.18 47.28 12.28 47.28 12.39C47.28 12.42 47.27 12.44 47.27 12.47C47.27 12.48 47.27 12.49 47.27 12.5C47.3 13.01 47.67 13.51 48.45 13.51H48.46C48.99 13.51 49.76 13.4 50.96 13.16L51.23 13.11C50.2 16.2 48.76 18.88 47.2 20.66C47.13 20.75 47.07 20.83 47.01 20.92C47 20.94 46.98 20.96 46.96 20.99C46.92 21.06 46.89 21.12 46.86 21.18C46.84 21.23 46.81 21.28 46.8 21.32C46.78 21.38 46.77 21.44 46.75 21.5C46.74 21.55 46.73 21.6 46.73 21.65C46.73 21.7 46.73 21.76 46.73 21.81C46.73 21.89 46.75 21.96 46.77 22.02C46.77 22.04 46.77 22.07 46.78 22.09C46.8 22.13 46.82 22.16 46.84 22.2C46.86 22.23 46.88 22.27 46.9 22.3C46.93 22.34 46.97 22.38 47 22.42C47.02 22.45 47.05 22.47 47.08 22.49C47.12 22.53 47.17 22.56 47.21 22.59C47.24 22.61 47.27 22.62 47.3 22.64C47.39 22.69 47.48 22.72 47.59 22.75C47.63 22.76 47.67 22.77 47.72 22.78C47.74 22.78 47.76 22.79 47.78 22.79C47.84 22.79 47.89 22.8 47.95 22.8C47.99 22.8 48.02 22.79 48.06 22.79C48.13 22.79 48.19 22.78 48.26 22.76C48.31 22.75 48.36 22.73 48.41 22.71C48.46 22.69 48.52 22.67 48.57 22.64C48.57 22.64 48.66 22.59 48.7 22.57C48.75 22.54 48.8 22.5 48.85 22.46C48.9 22.42 48.94 22.39 48.98 22.35C49.01 22.32 49.04 22.28 49.07 22.24C49.12 22.19 49.17 22.14 49.21 22.08C49.25 22.03 49.28 21.97 49.31 21.92C49.69 21.36 50.05 20.78 50.41 20.18C50.5 20.03 50.59 19.87 50.67 19.71C50.98 19.16 51.28 18.59 51.56 17.99C51.66 17.79 51.75 17.58 51.85 17.38C52.12 16.79 52.38 16.19 52.63 15.57C52.7 15.38 52.78 15.19 52.85 15C53.1 14.34 53.33 13.67 53.55 12.98C53.58 12.9 53.61 12.82 53.63 12.74H53.73C54.06 12.68 54.37 12.64 54.69 12.62C54.79 12.62 54.88 12.61 54.98 12.62C54.98 12.62 55 12.62 55.01 12.62C55.09 12.62 55.15 12.64 55.22 12.65C55.25 12.65 55.28 12.66 55.31 12.67C55.37 12.69 55.43 12.71 55.48 12.74C55.51 12.75 55.54 12.77 55.57 12.79C55.62 12.82 55.67 12.85 55.71 12.89C55.73 12.91 55.75 12.93 55.77 12.95C55.83 13.01 55.89 13.08 55.94 13.16C55.96 13.18 55.97 13.21 55.98 13.23C56.03 13.32 56.07 13.41 56.1 13.52C56.1 13.55 56.12 13.57 56.13 13.59C56.21 13.87 56.25 14.2 56.26 14.6C56.26 15.77 56.09 17.44 55.55 18.61C55.42 18.89 55.27 19.13 55.1 19.32C55.08 19.34 55.06 19.37 55.05 19.39C54.98 19.47 54.9 19.53 54.82 19.6C54.8 19.62 54.77 19.64 54.75 19.66C54.66 19.72 54.57 19.77 54.47 19.82C54.45 19.82 54.43 19.84 54.42 19.85C54.31 19.9 54.19 19.93 54.07 19.96H54.05C53.65 20.04 53.18 20.02 52.63 19.88C52.52 19.86 52.42 19.84 52.33 19.84C52.3 19.84 52.28 19.85 52.25 19.85C52.17 19.85 52.1 19.87 52.03 19.89C51.98 19.9 51.93 19.92 51.88 19.94C51.81 19.97 51.75 20.01 51.69 20.05C51.65 20.08 51.62 20.1 51.59 20.14C51.53 20.2 51.47 20.26 51.43 20.33C51.41 20.36 51.39 20.4 51.37 20.43C51.34 20.49 51.31 20.55 51.29 20.61C51.29 20.63 51.27 20.65 51.26 20.68C51.11 21.24 51.38 21.93 52.32 22.2C53.4 22.51 54.54 22.4 55.52 21.89C56.51 21.38 57.3 20.49 57.75 19.38C58.38 17.81 58.55 15.68 58.5 14.21C58.46 13.36 58.26 12.64 57.92 12.07L57.91 12.11ZM47.26 12.51C47.26 12.51 47.27 12.56 47.28 12.59C47.28 12.56 47.26 12.54 47.26 12.51ZM57.22 11.32C57.22 11.32 57.3 11.37 57.33 11.4C57.33 11.4 57.25 11.35 57.21 11.32H57.22Z" fill="#fff"></path>
            <path d="M90.2 18.3899H69.79C68.98 18.3899 68.52 19.0899 68.52 19.7899C68.52 20.4899 68.92 21.1099 69.79 21.1099H90.2C91.01 21.1099 91.41 20.4399 91.41 19.7599C91.41 19.0799 90.98 18.3899 90.2 18.3899Z" fill="#fff"></path>
            <path d="M71.86 7.70001H87.59C88.4 7.70001 88.8 7.05001 88.8 6.38001C88.8 5.71001 88.37 5.01001 87.59 5.01001H71.86C71.05 5.01001 70.59 5.71001 70.59 6.41001C70.59 7.06001 70.99 7.70001 71.86 7.70001Z" fill="#fff"></path>
            <path d="M106.87 2.20991C105.95 2.17991 104.55 2.15991 103.13 2.15991C101.41 2.15991 99.6601 2.18991 98.6301 2.20991C96.6101 2.28991 95.3201 3.41991 95.2601 5.14991C95.2101 6.94991 95.1801 9.58991 95.1801 12.2099C95.1801 15.1399 95.2101 18.0799 95.2601 19.8299C95.3401 21.8199 96.5 23.0099 98.84 23.0899C99.94 23.1399 101.34 23.1399 102.75 23.1399C104.16 23.1399 105.63 23.1399 106.82 23.0899C108.76 23.0099 110.11 21.6399 110.16 19.7499C110.21 18.3199 110.24 15.3599 110.24 12.3999C110.24 9.70991 110.21 7.00991 110.16 5.36991C110.11 3.42991 108.52 2.26991 106.87 2.21991V2.20991ZM107.54 18.6899C107.49 19.8499 107.03 20.5499 105.52 20.5999C104.82 20.6299 103.74 20.6299 102.69 20.6299C98.1101 20.6299 97.8201 20.5199 97.7601 18.7699C97.7101 17.4799 97.7101 15.3199 97.7101 13.0599H107.59C107.59 15.2099 107.59 17.3399 107.54 18.6899ZM97.7101 10.6899C97.7101 8.98991 97.7401 7.45991 97.7601 6.34991C97.8401 4.48991 98.22 4.45991 102.77 4.45991C107.08 4.45991 107.48 4.48991 107.54 6.34991C107.57 7.42991 107.59 8.98991 107.59 10.6899H97.7101Z" fill="#fff"></path>
            <path d="M132.64 0.159912C131.08 0.159912 129.81 1.44991 129.81 3.01991C129.81 4.58991 131.08 5.84991 132.64 5.84991C134.2 5.84991 135.5 4.57991 135.5 3.01991C135.5 1.45991 134.21 0.159912 132.64 0.159912ZM132.64 4.35991C131.89 4.35991 131.27 3.76991 131.27 3.00991C131.27 2.24991 131.89 1.60991 132.64 1.60991C133.39 1.60991 134.01 2.25991 134.01 3.00991C134.01 3.75991 133.39 4.35991 132.64 4.35991Z" fill="#fff"></path>
            <path d="M127.66 5.21999C124.24 5.16999 119.2 5.18999 115.65 5.35999C113.74 5.43999 113.93 8.07999 115.7 8.02999C119.58 7.89999 123.83 7.72999 126.47 7.80999C127.47 7.83999 127.55 8.50999 127.33 9.23999C126.12 13.2 122.59 18.1 116.64 19.98C114.59 20.63 115.59 23.45 117.88 22.59C125.42 19.71 128.71 14.48 130.59 9.09999C131.37 6.88999 129.84 5.24999 127.65 5.21999H127.66Z" fill="#fff"></path>
            <path d="M140.58 5.89992C143.49 5.97992 147.2 5.89992 149.74 5.89992C150.84 5.89992 151.3 5.27992 151.3 4.62992C151.3 3.97992 150.76 3.38992 149.85 3.38992C147.13 3.41992 143.36 3.41992 140.77 3.38992C138.7 3.35992 138.8 5.83992 140.58 5.88992V5.89992Z" fill="#fff"></path>
            <path d="M150.11 8.38006C146.45 8.35006 141.92 8.38006 138.45 8.46006C136.38 8.51006 136.62 11.0701 138.53 10.9901C141.41 10.8801 146.42 10.8001 149.17 10.8601C150.19 10.8901 150.33 11.3201 150.06 12.0401C148.85 15.4601 145.43 18.7201 140.12 20.1501C137.97 20.7201 138.96 23.3801 141.17 22.7101C147.85 20.6601 151.13 17.0501 153.02 12.5601C154.12 9.92006 152.8 8.41006 150.11 8.39006V8.38006Z" fill="#fff"></path>
            <path d="M173.27 6.78991C170.55 12.0699 165.11 17.6399 159.7 19.0199C157.47 19.5899 158.33 22.6599 160.62 21.9299C166.81 19.9599 172.39 14.4399 175.73 8.37991C176.91 6.24991 174.14 5.11991 173.28 6.78991H173.27Z" fill="#fff"></path>
            <path d="M164.49 10.5601C164.92 9.94011 164.97 8.92011 164.14 8.33011C162.85 7.41011 160.83 6.69011 159.4 6.28011C157.35 5.71011 156.68 8.43011 158.3 8.81011C159.57 9.11011 161.29 9.89011 162.29 10.8001C163.12 11.5501 164.07 11.1801 164.5 10.5601H164.49Z" fill="#fff"></path>
        </g>
        <defs>
            <clipPath id="clip0_4710_13681">
                <rect width="176.01" height="24.13" fill="white"></rect>
            </clipPath>
        </defs>
    </svg>