<svg height="33" viewBox="0 0 114 23" fill="none" xmlns="http://www.w3.org/2000/svg">
        <g clip-path="url(#clip0_4710_13648)">
            <path d="M1.51 13.5201C0.51 13.5201 0 12.7901 0 12.0701C0 11.3501 0.51 10.6201 1.51 10.6201H21.95C22.92 10.6201 23.38 11.3501 23.38 12.0501C23.38 12.8001 22.9 13.5301 21.95 13.5301H1.51V13.5201Z" fill="#fff"></path>
            <path d="M41.5 22.92C40.32 22.97 37.73 22.97 36.31 22.97C34.89 22.97 33.51 22.97 32.4 22.92C30.06 22.84 28.9 21.65 28.82 19.66C28.77 17.91 28.74 14.97 28.74 12.04C28.74 9.42999 28.77 6.78999 28.82 4.97999C28.87 3.25999 30.17 2.12999 32.19 2.03999C33.21 2.00999 34.96 1.98999 36.69 1.98999C38.12 1.98999 40.64 2.01999 41.56 2.03999C43.2 2.08999 44.79 3.24999 44.85 5.18999C44.9 6.82999 44.93 9.52999 44.93 12.22C44.93 15.18 44.9 18.14 44.85 19.57C44.8 21.46 43.45 22.83 41.51 22.91L41.5 22.92ZM42.28 10.53C42.28 8.82999 42.25 7.26999 42.23 6.18999C42.18 4.32999 40.65 4.29999 36.34 4.29999C31.79 4.29999 31.41 4.32999 31.33 6.18999C31.3 7.28999 31.28 8.82999 31.28 10.53H42.29H42.28ZM31.27 12.9C31.27 15.16 31.27 17.32 31.32 18.61C31.37 20.36 31.67 20.47 36.25 20.47C37.3 20.47 39.5 20.47 40.2 20.44C41.71 20.39 42.17 19.69 42.22 18.53C42.27 17.18 42.27 15.06 42.27 12.9H31.26H31.27Z" fill="#fff"></path>
            <path d="M52.57 19.82C58.52 17.93 62.05 13.03 63.26 9.07C63.48 8.34 63.39 7.67 62.4 7.64C59.76 7.56 55.51 7.72 51.63 7.86C49.85 7.91 49.66 5.27 51.58 5.19C55.13 5.03 60.17 5 63.59 5.06C65.77 5.09 67.31 6.73 66.53 8.94C64.64 14.33 61.36 19.55 53.82 22.43C51.53 23.29 50.53 20.46 52.58 19.82H52.57ZM68.57 5.68C67.01 5.68 65.74 4.41 65.74 2.85C65.74 1.29 67.01 0 68.57 0C70.13 0 71.43 1.29 71.43 2.85C71.43 4.41 70.14 5.68 68.57 5.68ZM68.57 1.45C67.82 1.45 67.2 2.1 67.2 2.85C67.2 3.6 67.82 4.2 68.57 4.2C69.32 4.2 69.94 3.61 69.94 2.85C69.94 2.09 69.32 1.45 68.57 1.45Z" fill="#fff"></path>
            <path d="M77.3301 22.54C75.1201 23.21 74.1301 20.55 76.2801 19.98C81.5901 18.55 85.0101 15.29 86.2201 11.87C86.4901 11.14 86.3501 10.71 85.3301 10.69C82.5801 10.64 77.5701 10.72 74.6901 10.82C72.7801 10.9 72.5401 8.34002 74.6101 8.29002C78.0801 8.21002 82.6101 8.18002 86.2701 8.21002C88.9601 8.24002 90.2801 9.75002 89.1801 12.38C87.2901 16.88 84.0101 20.49 77.3301 22.53V22.54ZM85.8901 5.74002C83.3601 5.74002 79.6401 5.82002 76.7301 5.74002C74.9501 5.69002 74.8401 3.21002 76.9201 3.24002C79.5101 3.27002 83.2801 3.27002 86.0001 3.24002C86.9201 3.24002 87.4501 3.83002 87.4501 4.48002C87.4501 5.13002 86.9901 5.75002 85.8901 5.75002V5.74002Z" fill="#fff"></path>
            <path d="M99.51 10.64C98.51 9.71999 96.79 8.93999 95.52 8.64999C93.9 8.26999 94.58 5.54999 96.62 6.11999C98.05 6.51999 100.07 7.24999 101.36 8.16999C102.2 8.75999 102.14 9.78999 101.71 10.41C101.28 11.03 100.34 11.41 99.5 10.65L99.51 10.64ZM97.84 21.76C95.55 22.49 94.69 19.42 96.92 18.85C102.33 17.48 107.77 11.9 110.49 6.61999C111.35 4.94999 114.13 6.07999 112.94 8.20999C109.6 14.27 104.03 19.79 97.83 21.76H97.84Z" fill="#fff"></path>
        </g>
    </svg>