<svg height="33" viewBox="0 0 117 24" fill="none" xmlns="http://www.w3.org/2000/svg">
        <g clip-path="url(#clip0_4710_13634)">
            <path d="M12.31 4.44004C12.2 5.11004 11.77 6.38004 11.45 7.21004C17.11 7.21004 17.59 7.21004 18.56 7.24004C20.2 7.27004 21.79 8.21004 21.85 10.34C21.9 11.93 21.93 13.65 21.93 15.35C21.93 16.8 21.9 18.26 21.85 19.55C21.8 21.44 20.61 22.84 18.51 22.89C16.33 22.97 14.01 23 11.75 23C9.49 23 7.25 22.97 5.15 22.89C2.81 22.81 1.62 21.62 1.57 19.63C1.54 18.23 1.52 16.8 1.52 15.38C1.52 13.63 1.55 11.91 1.57 10.18C1.6 8.46004 2.92 7.27004 4.94 7.24004C6.15 7.24004 7.47 7.21004 8.82 7.21004C9.09 6.32004 9.33 5.27004 9.47 4.44004H1.27C0.41 4.44004 0 3.87004 0 3.28004C0 2.69004 0.46 2.04004 1.27 2.04004H22C22.81 2.04004 23.21 2.63004 23.21 3.25004C23.21 3.87004 22.81 4.44004 22 4.44004H12.31ZM7.41 9.37004L6.01 9.40004C4.47 9.43004 4.04 9.86004 4.02 11.23C3.99 12.44 3.97 14.17 3.97 15.86C3.97 16.94 4 18.01 4.02 18.93C4.07 20.36 4.61 20.63 6.17 20.68C6.57 20.68 6.98 20.71 7.41 20.71V9.37004ZM13.52 9.34004H9.67V11.74H13.52V9.34004ZM13.52 13.65H9.67V16.05H13.52V13.65ZM13.52 17.96H9.67V20.76H13.52V17.96ZM15.84 20.71C18.24 20.71 19.29 20.68 19.34 18.88C19.37 17.75 19.39 16.46 19.39 15.14C19.39 13.82 19.36 12.47 19.34 11.24C19.29 9.70004 18.75 9.44004 17.43 9.41004C16.89 9.41004 16.38 9.38004 15.84 9.38004V20.72V20.71Z" fill="#fff"></path>
            <path d="M38.35 3.4999C38.05 3.1799 37.84 3.0199 37.65 3.0199C37.46 3.0199 37.27 3.1799 37 3.4999C34.79 6.2999 31.24 9.6899 28.36 11.5799C27.96 11.8499 27.58 11.9599 27.23 11.9599C26.37 11.9599 25.75 11.2599 25.75 10.5299C25.75 10.0699 26.02 9.5899 26.61 9.2599C29.73 7.6399 33.07 4.3599 35.12 1.6899C35.77 0.859902 36.6 0.399902 37.46 0.399902C38.32 0.399902 39.18 0.799902 39.99 1.6899C42.63 4.5199 45.51 6.7799 48.72 8.4199C49.23 8.6899 49.45 9.1199 49.45 9.5799C49.45 10.3599 48.78 11.1699 47.86 11.1699C46.41 11.1699 41.34 6.8299 38.35 3.4999ZM36.98 15.1099C36.5 16.6499 35.82 18.6399 35.01 20.3599C37.49 20.1699 39.94 19.8799 42.28 19.5299C41.66 18.9599 40.99 18.4299 40.31 17.9699C39.91 17.6999 39.74 17.3799 39.74 17.0499C39.74 16.4799 40.31 15.9499 41.01 15.9499C42.6 15.9499 47.45 20.4499 47.45 22.0399C47.45 22.8499 46.7 23.4899 45.94 23.4899C45.51 23.4899 45.1 23.2699 44.84 22.7599C44.57 22.2799 44.27 21.8199 43.95 21.3899C37.65 22.7099 30 23.2199 29.46 23.2199C28.65 23.2199 28.22 22.5199 28.22 21.8699C28.22 21.2799 28.57 20.6799 29.32 20.6599C30.26 20.6299 31.23 20.6099 32.2 20.5499C32.95 18.9899 33.65 16.9099 34.11 15.1399L29.02 15.1699C28.16 15.1699 27.75 14.5999 27.75 14.0099C27.75 13.4199 28.18 12.7399 29.02 12.7399H46.12C46.98 12.7399 47.41 13.3599 47.41 13.9799C47.41 14.5999 46.98 15.1699 46.12 15.1699L36.96 15.1199L36.98 15.1099ZM33.91 10.1499C33.08 10.1499 32.64 9.5599 32.64 8.9399C32.64 8.3199 33.07 7.7299 33.91 7.7299H41.64C42.47 7.7299 42.91 8.3499 42.91 8.9399C42.91 9.5299 42.48 10.1499 41.64 10.1499H33.91Z" fill="#fff"></path>
            <path d="M55.71 19.82C61.66 17.93 65.19 13.03 66.4 9.07C66.62 8.34 66.54 7.67 65.54 7.64C62.9 7.56 58.65 7.72 54.77 7.86C52.99 7.91 52.8 5.27 54.72 5.19C58.27 5.03 63.31 5 66.73 5.06C68.91 5.09 70.45 6.73 69.66 8.94C67.78 14.33 64.49 19.55 56.95 22.43C54.66 23.29 53.66 20.46 55.71 19.82ZM71.71 5.68C70.15 5.68 68.88 4.41 68.88 2.85C68.88 1.29 70.15 0 71.71 0C73.27 0 74.56 1.29 74.56 2.85C74.56 4.41 73.27 5.68 71.71 5.68ZM71.71 1.45C70.96 1.45 70.34 2.1 70.34 2.85C70.34 3.6 70.96 4.2 71.71 4.2C72.46 4.2 73.08 3.61 73.08 2.85C73.08 2.09 72.46 1.45 71.71 1.45Z" fill="#fff"></path>
            <path d="M80.24 22.54C78.03 23.21 77.04 20.55 79.19 19.98C84.5 18.55 87.92 15.29 89.13 11.87C89.4 11.14 89.26 10.71 88.24 10.69C85.49 10.64 80.48 10.72 77.6 10.82C75.69 10.9 75.45 8.34002 77.52 8.29002C80.99 8.21002 85.52 8.18002 89.18 8.21002C91.87 8.24002 93.19 9.75002 92.09 12.38C90.2 16.88 86.92 20.49 80.24 22.53V22.54ZM88.8 5.74002C86.27 5.74002 82.55 5.82002 79.64 5.74002C77.86 5.69002 77.75 3.21002 79.83 3.24002C82.42 3.27002 86.19 3.27002 88.91 3.24002C89.83 3.24002 90.36 3.83002 90.36 4.48002C90.36 5.13002 89.9 5.75002 88.8 5.75002V5.74002Z" fill="#fff"></path>
            <path d="M102.43 10.64C101.43 9.71999 99.71 8.93999 98.44 8.64999C96.82 8.26999 97.5 5.54999 99.54 6.11999C100.97 6.51999 102.99 7.24999 104.28 8.16999C105.12 8.75999 105.06 9.78999 104.63 10.41C104.2 11.03 103.26 11.41 102.42 10.65L102.43 10.64ZM100.76 21.76C98.47 22.49 97.61 19.42 99.84 18.85C105.25 17.48 110.69 11.9 113.41 6.61999C114.27 4.94999 117.05 6.07999 115.86 8.20999C112.52 14.27 106.95 19.79 100.75 21.76H100.76Z" fill="#fff"></path>
        </g>
    </svg>