<svg height="33" viewBox="0 0 112 23" fill="none" xmlns="http://www.w3.org/2000/svg">
        <g clip-path="url(#clip0_4710_13660)">
            <path d="M1.27 20.9501C0.41 20.9501 0 20.3001 0 19.6301C0 18.9601 0.46 18.2301 1.27 18.2301H21.68C22.46 18.2301 22.89 18.9301 22.89 19.6001C22.89 20.2701 22.49 20.9501 21.68 20.9501H1.27ZM3.34 7.5401C2.48 7.5401 2.07 6.8901 2.07 6.2501C2.07 5.5501 2.53 4.8501 3.34 4.8501H19.07C19.85 4.8501 20.28 5.5501 20.28 6.2201C20.28 6.8901 19.88 7.5401 19.07 7.5401H3.34Z" fill="#fff"></path>
            <path d="M40.18 22.92C39 22.97 36.41 22.97 34.99 22.97C33.57 22.97 32.19 22.97 31.08 22.92C28.74 22.84 27.58 21.65 27.5 19.66C27.45 17.91 27.42 14.97 27.42 12.04C27.42 9.43 27.45 6.79 27.5 4.98C27.55 3.26 28.85 2.13 30.87 2.05C31.89 2.02 33.64 2 35.37 2C36.8 2 39.32 2.03 40.24 2.05C41.88 2.1 43.47 3.26 43.53 5.2C43.58 6.84 43.61 9.54 43.61 12.23C43.61 15.19 43.58 18.15 43.53 19.58C43.48 21.47 42.13 22.84 40.19 22.92H40.18ZM40.96 10.53C40.96 8.83 40.93 7.27 40.91 6.19C40.86 4.33 39.33 4.3 35.02 4.3C30.47 4.3 30.09 4.33 30.01 6.19C29.98 7.29 29.96 8.83 29.96 10.53H40.97H40.96ZM29.95 12.9C29.95 15.16 29.95 17.32 30 18.61C30.05 20.36 30.35 20.47 34.93 20.47C35.98 20.47 38.18 20.47 38.88 20.44C40.39 20.39 40.85 19.69 40.9 18.53C40.95 17.18 40.95 15.06 40.95 12.9H29.94H29.95Z" fill="#fff"></path>
            <path d="M51.25 19.82C57.2 17.94 60.73 13.03 61.94 9.07999C62.16 8.34999 62.08 7.67999 61.08 7.64999C58.44 7.56999 54.19 7.72999 50.31 7.86999C48.53 7.91999 48.34 5.27999 50.26 5.19999C53.81 5.03999 58.85 5.00999 62.27 5.06999C64.45 5.09999 65.99 6.73999 65.2 8.94999C63.32 14.34 60.03 19.56 52.49 22.44C50.2 23.3 49.2 20.47 51.25 19.83V19.82ZM67.25 5.67999C65.69 5.67999 64.42 4.40999 64.42 2.84999C64.42 1.28999 65.69 -0.0100098 67.25 -0.0100098C68.81 -0.0100098 70.1 1.27999 70.1 2.84999C70.1 4.41999 68.81 5.67999 67.25 5.67999ZM67.25 1.44999C66.5 1.44999 65.88 2.09999 65.88 2.84999C65.88 3.59999 66.5 4.19999 67.25 4.19999C68 4.19999 68.62 3.60999 68.62 2.84999C68.62 2.08999 68 1.44999 67.25 1.44999Z" fill="#fff"></path>
            <path d="M76.01 22.54C73.8 23.21 72.81 20.55 74.96 19.98C80.27 18.55 83.69 15.29 84.9 11.87C85.17 11.14 85.03 10.71 84.01 10.69C81.26 10.64 76.25 10.72 73.37 10.82C71.46 10.9 71.22 8.34002 73.29 8.29002C76.76 8.21002 81.29 8.18002 84.95 8.21002C87.64 8.24002 88.96 9.75002 87.86 12.38C85.97 16.88 82.69 20.49 76.01 22.53V22.54ZM84.57 5.74002C82.04 5.74002 78.32 5.82002 75.41 5.74002C73.63 5.69002 73.52 3.21002 75.6 3.24002C78.19 3.27002 81.96 3.27002 84.68 3.24002C85.6 3.24002 86.13 3.83002 86.13 4.48002C86.13 5.13002 85.67 5.75002 84.57 5.75002V5.74002Z" fill="#fff"></path>
            <path d="M98.19 10.64C97.19 9.71999 95.47 8.93999 94.2 8.64999C92.58 8.26999 93.26 5.54999 95.3 6.11999C96.73 6.51999 98.75 7.24999 100.04 8.16999C100.88 8.75999 100.82 9.78999 100.39 10.4C99.96 11.01 99.02 11.4 98.18 10.64H98.19ZM96.52 21.76C94.23 22.49 93.37 19.42 95.6 18.85C101.01 17.48 106.45 11.9 109.17 6.61999C110.03 4.94999 112.81 6.07999 111.62 8.20999C108.28 14.27 102.71 19.79 96.51 21.76H96.52Z" fill="#fff"></path>
        </g>
        <defs>
            <clipPath id="clip0_4710_13660">
                <rect width="111.92" height="22.97" fill="white"></rect>
            </clipPath>
        </defs>
    </svg>