<svg height="29" viewBox="0 0 162 24" fill="none" xmlns="http://www.w3.org/2000/svg">
        <g clip-path="url(#clip0_4710_13640)">
            <path d="M13.3 3.77001C15.19 3.88001 16.53 5.06001 16.59 6.84001C16.64 8.56001 16.67 11.28 16.67 13.9C16.67 16.14 16.64 18.32 16.62 19.66C16.54 22.16 15.11 23.21 12.5 23.32C11.45 23.37 10.13 23.4 8.81001 23.4C2.37001 23.4 0.19001 23.35 0.0900098 19.71C0.0400098 18.09 0.0100098 15.81 0.0100098 13.49C0.0100098 11.17 0.0400098 8.78001 0.0900098 7.00001C0.22001 3.74001 2.67001 3.72001 5.52001 3.72001C5.84001 2.72001 6.11001 1.57001 6.22001 0.87001C6.30001 0.28001 6.92001 0.0100098 7.57001 0.0100098C8.32001 0.0100098 9.16001 0.41001 9.16001 1.20001C9.16001 1.66001 8.81001 2.57001 8.32001 3.70001C10.26 3.70001 12.25 3.70001 13.3 3.78001V3.77001ZM14.16 11.71H2.45001V14.97H14.17V11.71H14.16ZM14.13 9.42001C14.13 8.80001 14.1 8.24001 14.08 7.78001C14 5.95001 13.41 5.95001 8.45001 5.95001C6.86001 5.95001 5.33001 5.98001 4.46001 6.03001C2.55001 6.14001 2.47001 6.92001 2.47001 9.42001H14.14H14.13ZM2.48001 17.26C2.48001 17.99 2.51001 18.66 2.53001 19.17C2.58001 20.95 3.23001 21 8.51001 21C9.83001 21 11.18 20.97 12.06 20.92C14.13 20.81 14.13 19.76 14.13 17.26H2.48001Z" fill="#fff"></path>
            <path d="M32.56 16.0201C32.56 17.2301 32.56 18.4701 32.59 19.7401C32.64 21.2501 34.13 21.3301 35.79 21.3301C36.6 21.3301 37.38 21.2501 38.27 21.1101C39.56 20.9201 39.99 19.6601 40.05 18.3901C40.1 17.5601 40.67 17.1801 41.29 17.1801C41.99 17.1801 42.72 17.6601 42.72 18.4701V18.5501C42.5 23.1601 39.92 23.7201 35.53 23.7201C32.94 23.7201 30.12 23.5601 30.06 20.1701V16.3201L22.82 17.1501H22.6C21.85 17.1501 21.47 16.5601 21.47 15.9701C21.47 15.3801 21.82 14.7301 22.55 14.6501L30.06 13.8401C30.06 12.7901 30.06 11.7701 30.09 10.6901C28.55 10.9301 26.35 11.1701 25.14 11.1701C24.33 11.1701 23.87 10.5201 23.87 9.88006C23.87 9.31006 24.25 8.75006 25.03 8.72006C28.64 8.59006 32.03 8.10006 36.5 6.70006C36.66 6.65006 36.8 6.62006 36.93 6.62006C37.68 6.62006 38.09 7.32006 38.09 7.97006C38.09 8.45006 37.87 8.94006 37.39 9.07006C36.02 9.50006 34.35 9.93006 32.65 10.2501C32.62 11.3801 32.6 12.4601 32.57 13.5601L41.46 12.5101H41.62C42.35 12.5101 42.75 13.1801 42.75 13.8301C42.75 14.4001 42.43 14.9601 41.7 15.0401L32.57 16.0101L32.56 16.0201ZM33.58 3.17006C35.57 3.17006 37.57 3.20006 39.53 3.22006C40.98 3.25006 42.63 4.16006 42.68 5.94006C42.71 6.26006 42.71 6.56006 42.71 6.88006C42.71 7.96006 42.58 8.82006 41.34 8.82006C40.67 8.82006 40.02 8.42006 40.02 7.69006V7.64006C40.02 5.78006 40.02 5.43006 38.57 5.40006C36.42 5.37006 33.86 5.35006 31.38 5.35006C29.33 5.35006 27.34 5.38006 25.7 5.40006C24.25 5.43006 24.16 5.88006 24.14 6.58006V7.79006C24.14 8.54006 23.49 8.97006 22.85 8.97006C21.58 8.97006 21.56 7.97006 21.56 6.82006C21.56 5.55006 21.64 3.24006 24.44 3.21006C26.54 3.18006 28.67 3.16006 30.8 3.16006V1.43006C30.8 0.510059 31.5 0.0600586 32.2 0.0600586C32.9 0.0600586 33.6 0.520059 33.6 1.43006V3.18006L33.58 3.17006Z" fill="#fff"></path>
            <path d="M63.48 12.58C63.24 14.44 62.7 16.11 61.94 17.51C64.58 18.67 67.97 20.85 67.97 22.14C67.97 22.89 67.27 23.57 66.49 23.57C66.14 23.57 65.79 23.44 65.47 23.11C64.04 21.63 62.45 20.42 60.6 19.47C57.29 23.29 51.6 23.97 48.72 23.97C47.72 23.97 47.21 23.3 47.21 22.62C47.21 22.03 47.67 21.44 48.61 21.44C52.65 21.44 55.99 20.6 58.14 18.45C57.01 18.07 55.8 17.78 54.5 17.59C54.07 18.64 53.75 19.37 52.61 19.37C51.94 19.37 51.34 18.99 51.34 18.35C51.34 18.16 51.39 17.97 51.5 17.73C52.34 16.09 53.06 14.34 53.65 12.59H48.18C47.4 12.59 47.02 12.02 47.02 11.43C47.02 10.84 47.4 10.3 48.18 10.3H54.37C54.67 9.28003 54.94 8.25003 55.15 7.23003C55.31 6.53003 55.9 6.23003 56.5 6.23003C57.17 6.23003 57.85 6.63003 57.85 7.33003C57.85 7.49003 57.47 9.03003 57.1 10.29H68.22C69 10.29 69.4 10.86 69.4 11.42C69.4 11.98 69 12.58 68.22 12.58H63.45H63.48ZM59.66 3.21003C61.65 3.21003 63.67 3.24003 65.69 3.26003C67.14 3.29003 68.65 4.47003 68.71 6.06003C68.74 6.46003 68.74 6.92003 68.74 7.35003C68.74 8.35003 68.69 9.42003 67.26 9.42003C66.59 9.42003 65.91 9.04003 65.91 8.26003V8.21003C65.91 5.87003 65.86 5.52003 64.27 5.49003C62.17 5.46003 59.8 5.44003 57.48 5.44003C55.59 5.44003 53.74 5.47003 52.12 5.49003C50.67 5.52003 50.48 5.95003 50.4 6.94003V8.23003C50.4 9.01003 49.73 9.44003 49.05 9.44003C48.37 9.44003 47.73 9.04003 47.7 8.17003C47.7 7.82003 47.67 7.47003 47.67 7.12003C47.67 6.74003 47.7 6.34003 47.7 5.91003C47.75 4.59003 48.72 3.27003 50.8 3.24003C52.82 3.21003 54.84 3.19003 56.89 3.19003V1.24003C56.89 0.430029 57.59 0.0300293 58.29 0.0300293C58.99 0.0300293 59.66 0.430029 59.66 1.24003V3.21003ZM56.43 12.58C56.11 13.58 55.7 14.57 55.33 15.57C56.73 15.76 58.18 16.11 59.56 16.57C60.18 15.47 60.56 14.15 60.77 12.58H56.43Z" fill="#fff"></path>
            <path d="M85.18 9.56007L84.96 10.8501C86.41 10.8501 87.84 10.8801 88.57 10.9001C90.29 10.9501 91.07 11.7901 91.13 12.7301C91.18 13.4801 91.21 14.5101 91.21 15.5001C91.21 16.3601 91.18 17.2001 91.13 17.8701C91.05 18.8901 90.21 19.8101 88.57 19.8601C87.9 19.8901 86.68 19.8901 85.42 19.8901C83.67 19.8901 81.81 19.8901 80.92 19.8601C79.12 19.8101 78.42 18.9401 78.36 17.8701C78.33 17.1701 78.31 16.3901 78.31 15.5801C78.31 14.6101 78.34 13.5901 78.36 12.7301C78.41 11.0901 80.03 10.8401 82.4 10.8401L82.59 9.55007L73.19 9.63007C72.49 9.63007 72.11 9.09007 72.11 8.58007C72.11 8.04007 72.49 7.53007 73.19 7.53007L82.89 7.58007L83.11 6.18007C80.79 6.18007 78.53 6.18007 76.54 6.15007C73.93 6.12007 73.71 5.37007 73.71 3.62007C73.71 1.87007 73.84 0.870068 76.46 0.850068C78.51 0.820068 80.9 0.820068 83.33 0.820068C85.76 0.820068 88.23 0.820068 90.36 0.850068C92.86 0.880068 92.97 2.01007 92.97 3.30007C92.97 5.16007 92.84 6.13007 90.36 6.15007C88.88 6.18007 87.34 6.18007 85.75 6.18007V6.29007L85.53 7.58007L93.55 7.53007C94.25 7.53007 94.57 8.04007 94.57 8.58007C94.57 9.12007 94.25 9.63007 93.55 9.63007L85.17 9.55007L85.18 9.56007ZM93.26 20.9801C94.07 20.9801 94.47 21.5501 94.47 22.1101C94.47 22.6701 94.07 23.2701 93.23 23.3001C91.67 23.3501 88.98 23.3801 86.17 23.3801C82.59 23.3801 78.79 23.3301 76.93 23.2701C74.72 23.1901 73.54 22.1101 73.51 19.9801C73.48 18.7701 73.48 17.7701 73.48 16.8001C73.48 15.4001 73.51 14.0501 73.56 12.1701C73.59 11.3601 74.23 10.9901 74.88 10.9901C75.58 10.9901 76.25 11.3901 76.25 12.1201V12.1701C76.2 13.9701 76.14 15.4301 76.14 16.9401C76.14 20.4101 76.22 20.9001 77.81 20.9801C79.26 21.0301 82.04 21.0601 84.87 21.0601C88.13 21.0601 91.52 21.0301 93.22 20.9801H93.25H93.26ZM79.44 2.67007H77.15C76.42 2.67007 76.13 2.80007 76.13 3.56007C76.13 4.32007 76.53 4.42007 77.21 4.42007C77.89 4.42007 78.64 4.45007 79.45 4.45007V2.67007H79.44ZM88.76 14.7601H80.71V15.8401H88.76V14.7601ZM88.71 13.1201C88.68 12.6101 88.52 12.3901 87.96 12.3701C87.31 12.3401 85.94 12.3401 84.62 12.3401C83.3 12.3401 82.03 12.3401 81.58 12.3701C80.93 12.4001 80.77 12.6901 80.75 13.1501V13.3901H88.72V13.1201H88.71ZM80.74 17.2401V17.5901C80.74 18.2901 80.9 18.4001 83.94 18.4001C85.45 18.4001 87.17 18.3701 87.93 18.3501C88.47 18.3201 88.68 18.0801 88.71 17.5701C88.71 17.4601 88.74 17.3501 88.74 17.2501H80.74V17.2401ZM84.73 2.64007H81.69V4.44007H84.73V2.64007ZM86.96 4.44007C87.88 4.44007 88.76 4.41007 89.6 4.41007C90.44 4.41007 90.52 4.09007 90.52 3.55007C90.52 2.90007 90.47 2.66007 89.55 2.66007C88.71 2.66007 87.85 2.63007 86.96 2.63007V4.43007V4.44007Z" fill="#fff"></path>
            <path d="M101.09 19.9799C107.04 18.0899 110.57 13.1899 111.78 9.22991C112 8.49991 111.92 7.82991 110.92 7.79991C108.28 7.71991 104.03 7.87991 100.15 8.01991C98.37 8.06991 98.18 5.42991 100.1 5.34991C103.65 5.18991 108.69 5.15991 112.11 5.21991C114.29 5.24991 115.83 6.88991 115.04 9.09991C113.16 14.4899 109.87 19.7099 102.33 22.5899C100.04 23.4499 99.04 20.6199 101.09 19.9799ZM117.09 5.83991C115.53 5.83991 114.26 4.56991 114.26 3.00991C114.26 1.44991 115.53 0.159912 117.09 0.159912C118.65 0.159912 119.94 1.44991 119.94 3.00991C119.94 4.56991 118.65 5.83991 117.09 5.83991ZM117.09 1.60991C116.34 1.60991 115.72 2.25991 115.72 3.00991C115.72 3.75991 116.34 4.35991 117.09 4.35991C117.84 4.35991 118.46 3.76991 118.46 3.00991C118.46 2.24991 117.84 1.60991 117.09 1.60991Z" fill="#fff"></path>
            <path d="M125.61 22.6999C123.4 23.3699 122.41 20.7099 124.56 20.1399C129.87 18.7099 133.29 15.4499 134.5 12.0299C134.77 11.2999 134.63 10.8699 133.61 10.8499C130.86 10.7999 125.85 10.8799 122.97 10.9799C121.06 11.0599 120.82 8.49993 122.89 8.44993C126.36 8.36993 130.89 8.33993 134.55 8.36993C137.24 8.39993 138.56 9.90993 137.46 12.5399C135.57 17.0399 132.29 20.6499 125.61 22.6899V22.6999ZM134.17 5.89993C131.64 5.89993 127.92 5.97993 125.01 5.89993C123.23 5.84993 123.12 3.36993 125.2 3.39993C127.79 3.42993 131.56 3.42993 134.28 3.39993C135.2 3.39993 135.73 3.98993 135.73 4.63993C135.73 5.28993 135.27 5.90993 134.17 5.90993V5.89993Z" fill="#fff"></path>
            <path d="M147.8 10.7999C146.8 9.8799 145.08 9.0999 143.81 8.8099C142.19 8.4299 142.87 5.7099 144.91 6.2799C146.34 6.6799 148.36 7.4099 149.65 8.3299C150.49 8.9199 150.43 9.9499 150 10.5699C149.57 11.1899 148.63 11.5699 147.79 10.8099L147.8 10.7999ZM146.13 21.9199C143.84 22.6499 142.98 19.5799 145.21 19.0099C150.62 17.6399 156.06 12.0599 158.78 6.7799C159.64 5.1099 162.42 6.2399 161.23 8.3699C157.89 14.4299 152.32 19.9499 146.12 21.9199H146.13Z" fill="#fff"></path>
        </g>
    </svg>