<svg xmlns="http://www.w3.org/2000/svg" viewBox="0 0 234.56 96.58"><defs><style>.cls-1{fill:#fff;}.cls-2{fill:#f88011;}.cls-3{fill:#0c419a;}</style></defs><g id="レイヤー_2" data-name="レイヤー 2"><g id="design"><path class="cls-1" d="M143.9,96.58H2.55A2.56,2.56,0,0,1,0,94V13.55A2.56,2.56,0,0,1,2.55,11H143.9"/><rect class="cls-2" x="142.96" width="91.6" height="96.58" rx="1.42"/><path class="cls-3" d="M139.72,11H2.55A2.56,2.56,0,0,0,0,13.55V94a2.56,2.56,0,0,0,2.55,2.56H139.72V94.31H2.55A.28.28,0,0,1,2.27,94V13.55a.28.28,0,0,1,.28-.29H139.72Z"/><path class="cls-3" d="M132.88,33V28.62c0-.48.18-.86-.29-.86h-6.88a.86.86,0,0,1-.86-.86V22.08a.86.86,0,0,0-.86-.86h-4.52a.86.86,0,0,0-.86.86V26.9a.86.86,0,0,1-.86.86H95.91a.86.86,0,0,1-.86-.86V22.08a.86.86,0,0,0-.86-.86H89.67a.86.86,0,0,0-.86.86V26.9a.86.86,0,0,1-.86.86H81.07a.86.86,0,0,0-.86.86V33a.87.87,0,0,0,.86.86h51.52C133.06,33.84,132.88,33.45,132.88,33Z"/><path class="cls-3" d="M98.71,84.64h4.79a.87.87,0,0,0,.87-.86V39.85a.86.86,0,0,0-.87-.86h-19a.86.86,0,0,0-.86.86V83.78a.86.86,0,0,0,.86.86h4.8a.85.85,0,0,0,.86-.86V68.56a.86.86,0,0,1,.86-.86H97a.86.86,0,0,1,.86.86V83.78A.86.86,0,0,0,98.71,84.64Zm-8.5-38.28a.87.87,0,0,1,.86-.86H97a.87.87,0,0,1,.86.86V50.2a.87.87,0,0,1-.86.86H91.07a.87.87,0,0,1-.86-.86ZM97,62.27H91.07a.87.87,0,0,1-.86-.87v-4a.86.86,0,0,1,.86-.86H97a.86.86,0,0,1,.86.86v4A.87.87,0,0,1,97,62.27Z"/><path class="cls-3" d="M111.75,39.06a.86.86,0,0,0-.86.86V70.16a.87.87,0,0,0,.86.86h4a1.72,1.72,0,0,0,1.71-1.71V39.92a.86.86,0,0,0-.86-.86Z"/><path class="cls-3" d="M124.2,39a.85.85,0,0,0-.86.86V78a.87.87,0,0,1-.86.86h-1.83a.87.87,0,0,0-.83.62l-1.19,4.05a.86.86,0,0,0,.83,1.1H129a.86.86,0,0,0,.86-.86V39.86A.86.86,0,0,0,129,39Z"/><path class="cls-3" d="M37.75,79.26H35.86a.82.82,0,0,0-.79.59l-1.36,4.59a.83.83,0,0,0,.79,1.06h10a.82.82,0,0,0,.82-.83V75.75a.82.82,0,0,1,.82-.82H64.27a.83.83,0,0,0,.82-.83v-7a.83.83,0,0,1,.82-.83h6.38a.82.82,0,0,0,.82-.82V61.67a.82.82,0,0,0-.82-.82H65.91a.82.82,0,0,1-.82-.82V53a.82.82,0,0,0-.82-.82H46.19a.82.82,0,0,1-.82-.82V50.27a.82.82,0,0,1,.82-.82H64.27a.82.82,0,0,0,.82-.82V43.78h0v-3h0V35.94a.82.82,0,0,0-.82-.82H46.19a.82.82,0,0,1-.82-.82V33.18a.82.82,0,0,1,.82-.82H64.27a.82.82,0,0,0,.82-.82V27.75a.82.82,0,0,0-.82-.82H46.19a.82.82,0,0,1-.82-.82V21.18a.82.82,0,0,0-.82-.83H39.39a.83.83,0,0,0-.82.83v4.93a.82.82,0,0,1-.82.82H20.17a.82.82,0,0,0-.82.82v3.79a.82.82,0,0,0,.82.82H37.75a.82.82,0,0,1,.82.82V34.3a.82.82,0,0,1-.82.82H20.17a.82.82,0,0,0-.82.82v2h0v8.66h0v2a.82.82,0,0,0,.82.82H37.75a.82.82,0,0,1,.82.82v1.07a.82.82,0,0,1-.82.82H20.17a.82.82,0,0,0-.82.82v4a.83.83,0,0,0,.82.83H37.75a.82.82,0,0,1,.82.82V60a.82.82,0,0,1-.82.82H13.57a.82.82,0,0,0-.82.82v3.74a.81.81,0,0,0,.82.82H37.75a.83.83,0,0,1,.82.83v1.38a.82.82,0,0,1-.82.82H20.17a.82.82,0,0,0-.82.82v4a.83.83,0,0,0,.82.83H37.75a.82.82,0,0,1,.82.82v2.69A.82.82,0,0,1,37.75,79.26Zm7.62-37.65a.82.82,0,0,1,.82-.82H58a.83.83,0,0,1,.83.82V43a.83.83,0,0,1-.83.82H46.19a.82.82,0,0,1-.82-.82Zm0,17a.82.82,0,0,1,.82-.82H58a.82.82,0,0,1,.83.82V60a.83.83,0,0,1-.83.82H46.19a.82.82,0,0,1-.82-.82Zm0,8.41a.83.83,0,0,1,.82-.83H58a.83.83,0,0,1,.83.83v1.38a.83.83,0,0,1-.83.82H46.19a.82.82,0,0,1-.82-.82ZM37.75,43.78H26.41a.82.82,0,0,1-.82-.82V41.61a.82.82,0,0,1,.82-.82H37.75a.82.82,0,0,1,.82.82V43A.82.82,0,0,1,37.75,43.78Z"/><rect class="cls-1" x="200.51" y="15.55" width="7.12" height="47.99" rx="1.01"/><path class="cls-1" d="M155.13,30.74h3.38a1,1,0,0,1,1,1v3.82a1,1,0,0,0,1,1h8.52a1,1,0,0,1,1,1v.79a1,1,0,0,1-1,1h-8.52a1,1,0,0,0-1,1v4.33a1,1,0,0,0,1,1h8.52a1,1,0,0,1,1,1v2a1,1,0,0,1-1,1h-8.52a1,1,0,0,0-1,1v4.32a1,1,0,0,0,1,1h26.19a1,1,0,0,0,1-1V50.81a1,1,0,0,0-1-1h-9.54V28.36a1,1,0,0,0-1-1h-5.09a1,1,0,0,0-1,1v.85a1,1,0,0,1-1,1h-6.81a1,1,0,0,1-1-1V24.39a1,1,0,0,1,1-1H185a1,1,0,0,1,1,1v4.82a1,1,0,0,1-1,1H181a1,1,0,0,0-1,1v4.33a1,1,0,0,0,1,1h5.76a1,1,0,0,0,1-1V31.75a1,1,0,0,1,1-1h3.38a1,1,0,0,0,1-1V18a1,1,0,0,0-1-1h-37a1,1,0,0,0-1,1V29.72A1,1,0,0,0,155.13,30.74Z"/><path class="cls-1" d="M155.68,85.52h35.58a1,1,0,0,0,1-1V62a1,1,0,0,0-1-1H155.68a1,1,0,0,0-1,1V84.51A1,1,0,0,0,155.68,85.52Zm7.12-18.08h21.34a1,1,0,0,1,1,1v9.36a1,1,0,0,1-1,1H162.8a1,1,0,0,1-1-1V68.45A1,1,0,0,1,162.8,67.44Z"/><path class="cls-1" d="M173.13,13.93a4,4,0,1,0-3.31-3.31A4,4,0,0,0,173.13,13.93Z"/><rect class="cls-1" x="179.96" y="39.4" width="7.79" height="6.36" rx="1.01"/><path class="cls-1" d="M215,16.56V77.67a1,1,0,0,1-1,1h-3.51a1,1,0,0,0-1,.75l-1.3,4.81a1,1,0,0,0,1,1.28h11.93a1,1,0,0,0,1-1V16.56a1,1,0,0,0-1-1H216A1,1,0,0,0,215,16.56Z"/></g></g></svg>