<svg width="300" height="51" viewBox="0 0 300 51" fill="none" xmlns="http://www.w3.org/2000/svg">
<path d="M189.648 14.374H179.358C175.494 14.374 174.15 15.676 174.15 18.406V21.262C174.15 22.396 175.326 22.984 176.46 22.984C177.636 22.984 178.77 22.396 178.77 21.262V19.12C178.77 18.322 179.106 17.986 180.156 17.986H203.928C204.978 17.986 205.314 18.322 205.314 19.12V21.094C205.314 22.27 206.49 22.858 207.624 22.858C208.8 22.858 209.934 22.27 209.934 21.094V18.406C209.934 15.676 208.59 14.374 204.726 14.374H194.226V11.896C194.226 10.72 193.092 10.174 191.958 10.174C190.782 10.174 189.648 10.72 189.648 11.896V14.374ZM194.142 24.748C195.822 30.964 198.972 36.844 203.298 41.674C204.474 42.976 205.692 44.068 207.036 45.16C207.666 45.664 208.296 45.874 208.842 45.874C210.102 45.874 211.068 44.824 211.068 43.69C211.068 43.018 210.732 42.262 209.934 41.674C207.078 39.574 204.558 36.97 202.458 33.862C204.516 32.686 206.49 31.3 208.338 29.872C208.968 29.368 209.262 28.78 209.262 28.234C209.262 27.142 208.212 26.176 207.078 26.176C206.574 26.176 206.028 26.344 205.566 26.764C203.97 28.192 202.29 29.41 200.484 30.544C199.476 28.738 198.678 26.764 198.048 24.748H202.416C203.55 24.748 204.138 23.824 204.138 22.942C204.138 22.018 203.55 21.136 202.416 21.136H181.584C180.492 21.136 179.946 22.018 179.946 22.942C179.946 23.824 180.492 24.748 181.584 24.748H187.212C183.852 26.932 179.736 28.57 175.536 29.788C174.444 30.082 173.982 30.88 173.982 31.636C173.982 32.602 174.738 33.526 175.998 33.526C176.25 33.526 176.502 33.484 176.796 33.4C180.282 32.35 183.768 30.922 187.044 29.074C187.548 29.536 188.052 30.04 188.514 30.544C184.524 33.232 179.61 35.374 175.116 36.718C174.108 37.012 173.688 37.81 173.688 38.524C173.688 39.532 174.444 40.498 175.62 40.498C175.83 40.498 176.082 40.456 176.334 40.372C181.248 38.818 186.372 36.424 190.698 33.484C191.034 34.114 191.37 34.702 191.622 35.332C186.708 39.154 180.87 42.01 174.654 43.816C173.646 44.11 173.184 44.908 173.184 45.706C173.184 46.672 173.898 47.68 175.116 47.68C175.326 47.68 175.578 47.638 175.83 47.554C181.668 45.874 187.758 42.85 192.63 39.322C192.672 39.826 192.714 40.33 192.714 40.876C192.714 44.572 191.916 45.412 190.908 45.412C190.152 45.412 189.354 45.328 188.64 45.202C188.514 45.16 188.346 45.16 188.22 45.16C186.96 45.16 186.204 46.252 186.204 47.26C186.204 48.142 186.708 49.024 187.926 49.276C188.976 49.486 189.732 49.57 190.992 49.57C194.898 49.57 197.082 47.428 197.082 40.918C197.082 35.878 194.94 30.964 190.32 26.974C191.328 26.302 192.294 25.546 193.26 24.748H194.142Z" fill="#545458"/>
<path d="M242.174 28.738V29.368C242.174 30.544 242.132 31.678 241.964 32.854H234.95C233.9 32.854 233.396 33.778 233.396 34.744C233.396 35.668 233.9 36.634 234.95 36.634H241.166C239.78 40.75 237.218 43.06 233.438 44.992C232.388 45.496 231.926 46.336 231.926 47.092C231.926 48.142 232.808 49.108 234.026 49.108C234.362 49.108 234.782 49.024 235.202 48.814C239.444 46.756 242.594 43.816 244.484 39.784C246.29 43.438 248.978 46.336 252.086 48.268C252.59 48.562 253.052 48.688 253.472 48.688C254.648 48.688 255.572 47.764 255.572 46.672C255.572 45.958 255.152 45.16 254.144 44.572C251.246 42.808 248.516 40.204 246.962 36.634H253.766C254.858 36.634 255.362 35.668 255.362 34.744C255.362 33.778 254.858 32.854 253.766 32.854H246.332C246.458 31.72 246.5 30.628 246.5 29.494V28.738H251.75C252.842 28.738 253.346 27.772 253.346 26.848C253.346 25.882 252.842 24.958 251.75 24.958H241.418C241.586 24.496 241.796 23.992 241.922 23.572C242.006 23.32 242.048 23.068 242.048 22.858C242.048 21.808 241.082 21.136 240.074 21.136C239.276 21.136 238.478 21.556 238.142 22.522C237.344 24.748 236.21 27.1 234.866 29.032C234.614 29.41 234.446 29.83 234.446 30.208C234.446 31.216 235.37 32.014 236.42 32.014C237.092 32.014 237.806 31.678 238.352 30.838C238.814 30.166 239.234 29.452 239.612 28.738H242.174ZM240.368 16.054C240.788 15.13 241.208 14.248 241.376 13.366C241.46 13.156 241.502 12.904 241.502 12.736C241.502 11.518 240.284 10.762 239.15 10.762C238.268 10.762 237.386 11.182 237.092 12.19C236.168 15.13 234.488 18.616 232.85 20.8C232.43 21.346 232.262 21.85 232.262 22.312C232.262 23.446 233.312 24.286 234.404 24.286C235.076 24.286 235.79 23.992 236.294 23.278C237.05 22.27 237.722 21.178 238.352 20.086H253.346C254.48 20.086 255.068 19.078 255.068 18.07C255.068 17.062 254.48 16.054 253.346 16.054H240.368ZM221.93 17.692H218.024C216.932 17.692 216.344 18.7 216.344 19.708C216.344 20.716 216.932 21.724 218.024 21.724H220.754V25.462C220.754 33.442 219.158 40.372 216.554 45.034C216.302 45.496 216.176 45.958 216.176 46.336C216.176 47.554 217.226 48.352 218.318 48.352C219.116 48.352 219.914 47.974 220.46 47.008C222.77 42.808 224.492 36.592 224.996 29.536H226.34C227.096 29.536 227.306 29.788 227.306 30.544C227.306 35.416 226.97 39.952 226.424 43.312C226.34 43.942 226.088 44.152 225.626 44.152C225.29 44.152 224.954 44.11 224.618 44.068C224.45 44.026 224.324 44.026 224.198 44.026C222.938 44.026 222.224 45.16 222.224 46.294C222.224 47.344 222.812 48.352 224.114 48.562C224.828 48.688 225.5 48.772 226.256 48.772C228.608 48.772 230.372 47.554 230.876 44.11C231.422 40.372 231.674 35.458 231.674 29.998C231.674 27.016 230.372 25.756 227.138 25.756H225.122V21.724H230.708C231.842 21.724 232.43 20.716 232.43 19.708C232.43 18.7 231.842 17.692 230.708 17.692H226.298V12.568C226.298 11.35 225.206 10.72 224.114 10.72C223.022 10.72 221.93 11.35 221.93 12.568V17.692Z" fill="#545458"/>
<path d="M282.184 23.278V31.594C282.184 34.366 283.234 35.29 289.45 35.29C296.926 35.29 298.144 33.988 298.606 30.25V29.998C298.606 28.906 297.598 28.276 296.59 28.276C295.75 28.276 294.91 28.738 294.742 29.746C294.448 31.636 294.028 32.014 289.45 32.014C286.51 32.014 286.132 31.804 286.132 30.964V29.914C289.03 29.326 291.802 28.528 294.196 27.52C295.12 27.142 295.54 26.428 295.54 25.798C295.54 24.916 294.784 24.076 293.734 24.076C293.44 24.076 293.104 24.118 292.768 24.286C290.92 25.126 288.526 25.924 286.132 26.512V23.278H296.758C297.724 23.278 298.228 22.48 298.228 21.64C298.228 20.842 297.724 20.044 296.758 20.044H263.158C262.192 20.044 261.73 20.842 261.73 21.64C261.73 22.48 262.192 23.278 263.158 23.278H269.92C268.03 25.252 265.93 26.638 263.62 27.688C262.738 28.108 262.36 28.738 262.36 29.326C262.36 30.208 263.074 31.006 264.082 31.006C264.418 31.006 264.754 30.922 265.09 30.754C266.77 29.998 268.408 28.99 269.962 27.772H274.75C275.128 27.772 275.338 27.856 275.338 28.024C275.338 28.15 275.254 28.276 275.086 28.402C274.204 29.242 273.196 29.998 272.02 30.754C271.558 30.334 271.096 29.956 270.676 29.662C270.256 29.368 269.836 29.242 269.416 29.242C268.408 29.242 267.484 30.082 267.484 30.964C267.484 31.468 267.736 31.93 268.282 32.35C268.366 32.434 268.492 32.476 268.576 32.56C266.77 33.358 264.712 34.072 262.528 34.618C261.604 34.828 261.226 35.542 261.226 36.214C261.226 37.096 261.856 37.978 262.906 37.978C263.074 37.978 263.242 37.936 263.41 37.894C269.626 36.382 275.464 33.316 278.656 29.83C279.538 28.864 279.958 27.94 279.958 27.184C279.958 25.882 278.782 24.958 276.682 24.958H273.07C273.574 24.412 274.078 23.866 274.54 23.278H282.184ZM287.98 13.366V11.812C287.98 10.762 286.888 10.216 285.838 10.216C284.746 10.216 283.654 10.762 283.654 11.812V13.366H276.052V11.812C276.052 10.762 274.96 10.216 273.91 10.216C272.818 10.216 271.726 10.762 271.726 11.812V13.366H262.486C261.52 13.366 261.058 14.206 261.058 15.046C261.058 15.886 261.52 16.726 262.486 16.726H271.726V17.734C271.726 18.742 272.818 19.288 273.91 19.288C274.96 19.288 276.052 18.742 276.052 17.734V16.726H283.654V17.692C283.654 18.7 284.746 19.246 285.838 19.246C286.888 19.246 287.98 18.7 287.98 17.692V16.726H297.43C298.438 16.726 298.9 15.886 298.9 15.046C298.9 14.206 298.438 13.366 297.43 13.366H287.98ZM261.898 39.154C260.932 39.154 260.47 39.994 260.47 40.876C260.47 41.716 260.932 42.598 261.898 42.598H271.18C270.13 44.194 268.408 45.37 265.762 46.21C264.628 46.588 264.166 47.386 264.166 48.142C264.166 49.15 264.964 50.116 266.14 50.116C266.392 50.116 266.644 50.074 266.896 49.99C271.6 48.604 274.54 46.084 275.884 42.598H283.948V48.31C283.948 49.36 285.04 49.906 286.132 49.906C287.224 49.906 288.316 49.36 288.316 48.31V42.598H298.186C299.152 42.598 299.656 41.716 299.656 40.876C299.656 39.994 299.152 39.154 298.186 39.154H288.316V37.474C288.316 36.424 287.224 35.878 286.132 35.878C285.04 35.878 283.948 36.424 283.948 37.474V39.154H276.64C276.682 38.65 276.724 38.146 276.724 37.642C276.724 36.466 275.632 35.878 274.54 35.878C273.448 35.878 272.356 36.466 272.356 37.642C272.356 38.188 272.314 38.692 272.272 39.154H261.898Z" fill="#545458"/>
<path fill-rule="evenodd" clip-rule="evenodd" d="M92.7627 21.3351L94.9611 25.3815C106.686 21.3351 110.35 13.6102 111.083 7.17276L104.854 5.3335C104.487 7.35669 103.205 16.9209 92.7627 21.3351" fill="#EED46F"/>
<mask id="mask0" mask-type="alpha" maskUnits="userSpaceOnUse" x="130" y="0" width="20" height="21">
<path fill-rule="evenodd" clip-rule="evenodd" d="M130.868 0H149.188V20.2315H130.868V0Z" fill="white"/>
</mask>
<g mask="url(#mask0)">
<path fill-rule="evenodd" clip-rule="evenodd" d="M142.776 -0.000228882C142.41 2.20689 141.311 11.7711 130.868 16.1853L133.067 20.2317C144.791 16.1853 148.455 8.46039 149.188 2.02296L142.776 -0.000228882Z" fill="#EED46F"/>
</g>
<path fill-rule="evenodd" clip-rule="evenodd" d="M55.9393 29.2448C56.3057 29.2448 56.4889 28.877 56.4889 28.6931V26.302C56.4889 25.9342 56.1225 25.7502 55.9393 25.7502C55.0233 25.7502 54.6569 24.6467 54.4737 24.2788V23.1753V7.54151C54.4737 7.17366 54.1073 6.98973 53.9241 6.98973H48.4281C48.0617 6.98973 47.8785 7.35758 47.8785 7.54151V22.6235C47.6953 25.0145 48.7945 29.0609 55.9393 29.2448" fill="#545458"/>
<path fill-rule="evenodd" clip-rule="evenodd" d="M69.1298 6.9894H63.6338C63.2674 6.9894 63.0842 7.35726 63.0842 7.54118V28.3249C63.0842 38.9926 61.2522 43.9586 55.573 44.6943C55.2066 44.6943 55.0234 45.0622 55.0234 45.2461V48.5568C55.0234 48.9246 55.3898 49.1067 55.573 49.1067C64.3666 48.9246 69.6794 40.83 69.6794 27.5892V7.54118C69.8626 7.35726 69.4962 6.9894 69.1298 6.9894" fill="#545458"/>
<path fill-rule="evenodd" clip-rule="evenodd" d="M93.6786 14.5309C95.6938 14.5309 97.3426 13.0594 97.3426 11.2202C97.3426 9.38092 95.6938 7.90951 93.6786 7.90951C91.6634 7.90951 90.0146 9.38092 90.0146 11.2202C90.0146 13.0594 91.6634 14.5309 93.6786 14.5309" fill="#545458"/>
<mask id="mask1" mask-type="alpha" maskUnits="userSpaceOnUse" x="0" y="6" width="29" height="44">
<path fill-rule="evenodd" clip-rule="evenodd" d="M0 6.9894H28.8255V49.6604H0V6.9894Z" fill="white"/>
</mask>
<g mask="url(#mask1)">
<path fill-rule="evenodd" clip-rule="evenodd" d="M14.5356 42.8545C14.5356 43.7741 14.3524 44.508 13.986 44.8777C13.4364 45.2456 12.5204 45.2456 12.154 45.2456C10.6884 45.0616 6.1084 43.4063 6.1084 38.8081C6.1084 38.0724 6.1084 36.601 7.0244 35.6814C7.75719 34.9457 8.67319 34.7617 9.58919 34.7617H13.8028C14.1692 34.7617 14.3524 35.1296 14.3524 35.3135L14.5356 42.8545ZM28.2763 29.9802H22.0475C21.6811 29.9802 21.4979 29.6124 21.4979 29.4284V24.4624V15.8179C21.4979 14.7143 21.4979 13.6108 22.4139 12.6911C23.3299 11.9554 24.4291 11.0358 27.5435 11.0358H27.7267C28.0931 11.0358 28.2763 10.6679 28.2763 10.484V7.72511C28.2763 7.35726 27.9099 7.17333 27.7267 7.17333C26.9939 7.17333 26.2611 6.9894 25.5283 6.9894C22.9635 6.9894 19.6659 7.35726 17.1011 9.19652C15.4523 10.484 14.5363 12.3233 14.5363 14.3465V24.4624V29.4284C14.5363 29.7963 14.1699 29.9802 13.9867 29.9802H9.77311C8.49071 29.9802 4.82673 30.3481 2.26193 32.7391C0.979538 34.0266 -0.302858 36.0498 0.0635408 39.3605C0.613139 45.0622 6.65872 49.2925 11.7883 49.6604H12.5211C14.7195 49.6604 17.1011 48.9246 18.7499 47.4532C20.2155 46.1658 21.4979 44.6943 21.4979 41.5676V35.3141C21.4979 34.9462 21.8643 34.7623 22.0475 34.7623H28.2763C28.6427 34.7623 28.8259 34.3945 28.8259 34.2105V30.532C28.8259 30.3481 28.6427 29.9802 28.2763 29.9802V29.9802Z" fill="#545458"/>
</g>
<path fill-rule="evenodd" clip-rule="evenodd" d="M147.906 21.519C145.891 20.5993 143.692 20.2315 141.127 20.2315C136.547 20.2315 131.784 21.8868 129.036 23.3582C128.67 23.5422 128.67 23.7261 128.67 23.91V28.1403C128.67 28.5082 129.22 28.876 129.769 28.6921C132.151 27.4046 136.731 25.5653 140.578 25.5653C142.227 25.5653 143.692 25.9332 144.975 26.485C147.723 27.7725 148.639 34.2099 146.44 38.2563C144.791 41.567 142.227 43.5901 138.563 44.3259C138.196 44.3259 138.196 44.6937 138.196 44.8776V48.3722C138.196 48.7401 138.563 48.924 138.929 48.924H139.112C145.524 47.6365 150.104 44.6937 152.669 39.5438C155.783 32.5546 153.951 24.4618 147.906 21.519" fill="#545458"/>
<path fill-rule="evenodd" clip-rule="evenodd" d="M113.83 17.6564C103.204 22.2546 89.6472 22.9903 87.2656 23.1742C86.716 23.1742 86.3496 23.5421 86.3496 24.0939V27.2206C86.3496 27.7724 86.5328 28.1403 87.4488 28.1403C88.7312 28.1403 92.9448 27.7724 96.4256 27.4046C96.6088 27.4046 96.792 27.5885 96.792 27.5885C96.792 27.7724 96.9752 27.9563 96.9752 27.9563C96.4256 29.6117 95.1432 33.842 95.876 37.7044C97.3416 44.5097 105.952 48.74 108.7 49.1079H108.883C109.066 49.1079 109.25 49.1079 109.25 48.924C109.433 48.74 109.433 48.5561 109.433 48.5561V44.3258C109.433 44.1419 109.25 43.9579 109.066 43.9579C107.234 43.2222 103.387 41.383 102.471 37.3366C101.006 31.4509 104.67 26.8528 105.586 26.301C108.7 25.5653 111.631 24.0939 114.379 23.1742C114.746 22.9903 114.746 22.8064 114.746 22.6225V18.5761C114.746 17.8404 114.379 17.4725 113.83 17.6564" fill="#545458"/>
</svg>
