<svg width="300" height="51" viewBox="0 0 300 51" fill="none" xmlns="http://www.w3.org/2000/svg">
<path d="M238.184 23.278V31.594C238.184 34.366 239.234 35.29 245.45 35.29C252.926 35.29 254.144 33.988 254.606 30.25V29.998C254.606 28.906 253.598 28.276 252.59 28.276C251.75 28.276 250.91 28.738 250.742 29.746C250.448 31.636 250.028 32.014 245.45 32.014C242.51 32.014 242.132 31.804 242.132 30.964V29.914C245.03 29.326 247.802 28.528 250.196 27.52C251.12 27.142 251.54 26.428 251.54 25.798C251.54 24.916 250.784 24.076 249.734 24.076C249.44 24.076 249.104 24.118 248.768 24.286C246.92 25.126 244.526 25.924 242.132 26.512V23.278H252.758C253.724 23.278 254.228 22.48 254.228 21.64C254.228 20.842 253.724 20.044 252.758 20.044H219.158C218.192 20.044 217.73 20.842 217.73 21.64C217.73 22.48 218.192 23.278 219.158 23.278H225.92C224.03 25.252 221.93 26.638 219.62 27.688C218.738 28.108 218.36 28.738 218.36 29.326C218.36 30.208 219.074 31.006 220.082 31.006C220.418 31.006 220.754 30.922 221.09 30.754C222.77 29.998 224.408 28.99 225.962 27.772H230.75C231.128 27.772 231.338 27.856 231.338 28.024C231.338 28.15 231.254 28.276 231.086 28.402C230.204 29.242 229.196 29.998 228.02 30.754C227.558 30.334 227.096 29.956 226.676 29.662C226.256 29.368 225.836 29.242 225.416 29.242C224.408 29.242 223.484 30.082 223.484 30.964C223.484 31.468 223.736 31.93 224.282 32.35C224.366 32.434 224.492 32.476 224.576 32.56C222.77 33.358 220.712 34.072 218.528 34.618C217.604 34.828 217.226 35.542 217.226 36.214C217.226 37.096 217.856 37.978 218.906 37.978C219.074 37.978 219.242 37.936 219.41 37.894C225.626 36.382 231.464 33.316 234.656 29.83C235.538 28.864 235.958 27.94 235.958 27.184C235.958 25.882 234.782 24.958 232.682 24.958H229.07C229.574 24.412 230.078 23.866 230.54 23.278H238.184ZM243.98 13.366V11.812C243.98 10.762 242.888 10.216 241.838 10.216C240.746 10.216 239.654 10.762 239.654 11.812V13.366H232.052V11.812C232.052 10.762 230.96 10.216 229.91 10.216C228.818 10.216 227.726 10.762 227.726 11.812V13.366H218.486C217.52 13.366 217.058 14.206 217.058 15.046C217.058 15.886 217.52 16.726 218.486 16.726H227.726V17.734C227.726 18.742 228.818 19.288 229.91 19.288C230.96 19.288 232.052 18.742 232.052 17.734V16.726H239.654V17.692C239.654 18.7 240.746 19.246 241.838 19.246C242.888 19.246 243.98 18.7 243.98 17.692V16.726H253.43C254.438 16.726 254.9 15.886 254.9 15.046C254.9 14.206 254.438 13.366 253.43 13.366H243.98ZM217.898 39.154C216.932 39.154 216.47 39.994 216.47 40.876C216.47 41.716 216.932 42.598 217.898 42.598H227.18C226.13 44.194 224.408 45.37 221.762 46.21C220.628 46.588 220.166 47.386 220.166 48.142C220.166 49.15 220.964 50.116 222.14 50.116C222.392 50.116 222.644 50.074 222.896 49.99C227.6 48.604 230.54 46.084 231.884 42.598H239.948V48.31C239.948 49.36 241.04 49.906 242.132 49.906C243.224 49.906 244.316 49.36 244.316 48.31V42.598H254.186C255.152 42.598 255.656 41.716 255.656 40.876C255.656 39.994 255.152 39.154 254.186 39.154H244.316V37.474C244.316 36.424 243.224 35.878 242.132 35.878C241.04 35.878 239.948 36.424 239.948 37.474V39.154H232.64C232.682 38.65 232.724 38.146 232.724 37.642C232.724 36.466 231.632 35.878 230.54 35.878C229.448 35.878 228.356 36.466 228.356 37.642C228.356 38.188 228.314 38.692 228.272 39.154H217.898Z" fill="#545458"/>
<path d="M269.962 41.968C267.862 42.346 265.762 42.64 263.872 42.85C262.57 43.018 261.94 43.984 261.94 44.95C261.94 46.042 262.654 47.092 264.082 47.092H264.376C269.584 46.504 276.262 45.076 281.176 43.69C282.31 43.354 282.772 42.556 282.772 41.758C282.772 40.708 281.974 39.7 280.756 39.7C280.546 39.7 280.336 39.742 280.126 39.784C278.404 40.246 276.472 40.708 274.498 41.128V32.224H278.488C279.622 32.224 280.21 31.216 280.21 30.208C280.21 29.2 279.622 28.192 278.488 28.192H265.342C264.208 28.192 263.662 29.2 263.662 30.208C263.662 31.216 264.208 32.224 265.342 32.224H269.962V41.968ZM263.074 17.986C261.982 17.986 261.394 19.036 261.394 20.044C261.394 21.094 261.982 22.144 263.074 22.144H281.806C282.31 28.57 283.318 33.694 284.662 37.684C287.392 45.832 290.332 48.688 294.154 48.688C297.43 48.688 299.404 46.378 299.908 41.254V41.044C299.908 39.742 298.816 38.986 297.724 38.986C296.758 38.986 295.792 39.574 295.666 40.792C295.372 43.606 294.868 44.026 294.07 44.026C292.852 44.026 291.214 42.472 288.988 36.004C287.77 32.434 286.888 27.94 286.426 22.144H296.884C298.018 22.144 298.606 21.094 298.606 20.044C298.606 19.036 298.018 17.986 296.884 17.986H286.216C286.132 16.138 286.09 14.164 286.09 12.064C286.09 10.762 284.914 10.132 283.738 10.132C282.604 10.132 281.428 10.762 281.428 12.106C281.428 14.164 281.47 16.138 281.554 17.986H263.074ZM291.13 11.35C290.71 11.056 290.248 10.93 289.828 10.93C288.736 10.93 287.812 11.812 287.812 12.82C287.812 13.324 288.064 13.87 288.61 14.332C289.534 15.046 290.164 15.634 291.004 16.474C291.466 16.936 291.97 17.104 292.474 17.104C293.566 17.104 294.574 16.18 294.574 15.088C294.574 14.542 294.322 13.996 293.776 13.45C292.894 12.652 292.054 12.022 291.13 11.35Z" fill="#545458"/>
<path d="M176.665 16.7161C176.014 16.7161 174.181 17.1589 174.181 18.6886C174.181 19.3326 174.303 19.5339 175.444 21.6674C176.299 23.2775 177.602 26.0551 178.335 28.0275C179.272 30.5636 179.476 31.1674 180.901 31.1674C181.838 31.1674 183.385 30.6441 183.385 29.1144C183.385 27.7055 181.145 22.9555 180.331 21.3051C178.009 16.7161 177.521 16.7161 176.665 16.7161ZM207.496 16.5953C206.192 16.5953 205.826 17.3199 205.419 18.4068C204.4 20.983 203.301 23.2775 201.835 25.6928C200.246 28.2691 200.206 28.3898 200.206 29.0741C200.206 30.2415 201.631 31.0466 202.649 31.0466C203.504 31.0466 204.156 31.0466 207.455 24.8475C208.269 23.3178 210.102 19.8962 210.102 18.5275C210.102 16.7966 207.862 16.5953 207.496 16.5953ZM189.657 21.3051C189.657 22.875 189.413 26.2966 188.558 29.1949C187.662 32.1737 185.87 35.9979 182.001 39.4597C179.72 41.5127 178.905 41.9152 174.222 44.1695C174.018 44.2902 173 44.8538 173 46.0212C173 46.8665 173.652 48.5572 175.199 48.5572C177.113 48.5572 181.308 45.8199 183.711 43.8475C187.254 40.8686 190.594 36.7225 192.06 30.483C193.119 34.75 194.952 38.4936 199.024 42.5996C202.12 45.6991 206.763 48.6377 208.677 48.5975C210.102 48.5975 210.917 47.0275 210.917 46.0212C210.917 44.8538 210.021 44.3708 209.369 44.0487C205.419 42.036 203.382 41.0297 200.491 37.8898C196.336 33.3814 194.341 27.4237 194.341 21.3453V13.2542C194.341 11.7246 193.689 11.161 191.816 11.161C189.82 11.161 189.657 12.4089 189.657 13.2542V21.3051Z" fill="#545458"/>
<path fill-rule="evenodd" clip-rule="evenodd" d="M92.7627 21.3351L94.9611 25.3815C106.686 21.3351 110.35 13.6102 111.083 7.17277L104.854 5.3335C104.487 7.35669 103.205 16.9209 92.7627 21.3351" fill="#EED46F"/>
<mask id="mask0" mask-type="alpha" maskUnits="userSpaceOnUse" x="130" y="0" width="20" height="21">
<path fill-rule="evenodd" clip-rule="evenodd" d="M130.868 0H149.188V20.2315H130.868V0Z" fill="white"/>
</mask>
<g mask="url(#mask0)">
<path fill-rule="evenodd" clip-rule="evenodd" d="M142.776 -0.000228882C142.41 2.20689 141.311 11.7711 130.868 16.1853L133.067 20.2317C144.791 16.1853 148.455 8.46039 149.188 2.02296L142.776 -0.000228882Z" fill="#EED46F"/>
</g>
<path fill-rule="evenodd" clip-rule="evenodd" d="M55.9393 29.2448C56.3057 29.2448 56.4889 28.877 56.4889 28.6931V26.302C56.4889 25.9342 56.1225 25.7502 55.9393 25.7502C55.0233 25.7502 54.6569 24.6467 54.4737 24.2788V23.1753V7.54151C54.4737 7.17365 54.1073 6.98973 53.9241 6.98973H48.4281C48.0617 6.98973 47.8785 7.35758 47.8785 7.54151V22.6235C47.6953 25.0145 48.7945 29.0609 55.9393 29.2448" fill="#545458"/>
<path fill-rule="evenodd" clip-rule="evenodd" d="M69.1298 6.9894H63.6338C63.2674 6.9894 63.0842 7.35726 63.0842 7.54118V28.3249C63.0842 38.9926 61.2522 43.9586 55.573 44.6943C55.2066 44.6943 55.0234 45.0622 55.0234 45.2461V48.5568C55.0234 48.9246 55.3898 49.1067 55.573 49.1067C64.3666 48.9246 69.6794 40.83 69.6794 27.5892V7.54118C69.8626 7.35726 69.4962 6.9894 69.1298 6.9894" fill="#545458"/>
<path fill-rule="evenodd" clip-rule="evenodd" d="M93.6786 14.5309C95.6938 14.5309 97.3426 13.0594 97.3426 11.2202C97.3426 9.38092 95.6938 7.90951 93.6786 7.90951C91.6634 7.90951 90.0146 9.38092 90.0146 11.2202C90.0146 13.0594 91.6634 14.5309 93.6786 14.5309" fill="#545458"/>
<mask id="mask1" mask-type="alpha" maskUnits="userSpaceOnUse" x="0" y="6" width="29" height="44">
<path fill-rule="evenodd" clip-rule="evenodd" d="M0 6.9894H28.8255V49.6604H0V6.9894Z" fill="white"/>
</mask>
<g mask="url(#mask1)">
<path fill-rule="evenodd" clip-rule="evenodd" d="M14.5356 42.8545C14.5356 43.7741 14.3524 44.508 13.986 44.8777C13.4364 45.2456 12.5204 45.2456 12.154 45.2456C10.6884 45.0616 6.1084 43.4063 6.1084 38.8081C6.1084 38.0724 6.1084 36.601 7.0244 35.6814C7.75719 34.9457 8.67319 34.7617 9.58919 34.7617H13.8028C14.1692 34.7617 14.3524 35.1296 14.3524 35.3135L14.5356 42.8545ZM28.2763 29.9802H22.0475C21.6811 29.9802 21.4979 29.6124 21.4979 29.4284V24.4624V15.8179C21.4979 14.7143 21.4979 13.6108 22.4139 12.6911C23.3299 11.9554 24.4291 11.0358 27.5435 11.0358H27.7267C28.0931 11.0358 28.2763 10.6679 28.2763 10.484V7.72511C28.2763 7.35726 27.9099 7.17333 27.7267 7.17333C26.9939 7.17333 26.2611 6.9894 25.5283 6.9894C22.9635 6.9894 19.6659 7.35726 17.1011 9.19652C15.4523 10.484 14.5363 12.3233 14.5363 14.3465V24.4624V29.4284C14.5363 29.7963 14.1699 29.9802 13.9867 29.9802H9.77311C8.49071 29.9802 4.82673 30.3481 2.26193 32.7391C0.979538 34.0266 -0.302858 36.0498 0.0635408 39.3605C0.613139 45.0622 6.65872 49.2925 11.7883 49.6604H12.5211C14.7195 49.6604 17.1011 48.9246 18.7499 47.4532C20.2155 46.1658 21.4979 44.6943 21.4979 41.5676V35.3141C21.4979 34.9462 21.8643 34.7623 22.0475 34.7623H28.2763C28.6427 34.7623 28.8259 34.3945 28.8259 34.2105V30.532C28.8259 30.3481 28.6427 29.9802 28.2763 29.9802V29.9802Z" fill="#545458"/>
</g>
<path fill-rule="evenodd" clip-rule="evenodd" d="M147.906 21.519C145.891 20.5993 143.692 20.2315 141.127 20.2315C136.547 20.2315 131.784 21.8868 129.036 23.3582C128.67 23.5422 128.67 23.7261 128.67 23.91V28.1403C128.67 28.5082 129.22 28.876 129.769 28.6921C132.151 27.4046 136.731 25.5653 140.578 25.5653C142.227 25.5653 143.692 25.9332 144.975 26.485C147.723 27.7725 148.639 34.2099 146.44 38.2563C144.791 41.567 142.227 43.5901 138.563 44.3259C138.196 44.3259 138.196 44.6937 138.196 44.8776V48.3722C138.196 48.7401 138.563 48.924 138.929 48.924H139.112C145.524 47.6365 150.104 44.6937 152.669 39.5438C155.783 32.5546 153.951 24.4618 147.906 21.519" fill="#545458"/>
<path fill-rule="evenodd" clip-rule="evenodd" d="M113.83 17.6564C103.204 22.2546 89.6472 22.9903 87.2656 23.1742C86.716 23.1742 86.3496 23.5421 86.3496 24.0939V27.2206C86.3496 27.7724 86.5328 28.1403 87.4488 28.1403C88.7312 28.1403 92.9448 27.7724 96.4256 27.4046C96.6088 27.4046 96.792 27.5885 96.792 27.5885C96.792 27.7724 96.9752 27.9563 96.9752 27.9563C96.4256 29.6117 95.1432 33.842 95.876 37.7044C97.3416 44.5097 105.952 48.74 108.7 49.1079H108.883C109.066 49.1079 109.25 49.1079 109.25 48.924C109.433 48.74 109.433 48.5561 109.433 48.5561V44.3258C109.433 44.1419 109.25 43.9579 109.066 43.9579C107.234 43.2222 103.387 41.383 102.471 37.3366C101.006 31.4509 104.67 26.8528 105.586 26.301C108.7 25.5653 111.631 24.0939 114.379 23.1742C114.746 22.9903 114.746 22.8064 114.746 22.6225V18.5761C114.746 17.8404 114.379 17.4725 113.83 17.6564" fill="#545458"/>
</svg>
