<svg xmlns="http://www.w3.org/2000/svg" viewBox="0 0 332.8 60.5" xmlns:v="https://vecta.io/nano"><path d="M103.2 24.7l2.2 4.6c12.5-4.7 16.4-13.3 17.3-20.7L116 6.4c-.3 2.5-1.6 13.4-12.8 18.3zM156.8.6c-.4 2.5-1.6 13.4-12.9 18.3l2.2 4.6c12.5-4.7 16.4-13.3 17.3-20.7L156.8.6z" fill="#f3d45b"/><path d="M63.5 33.8a.68.68 0 0 0 .7-.7v-2.6c0-.4-.3-.6-.7-.7-1-.1-1.5-1.1-1.6-1.7V9.3a.68.68 0 0 0-.7-.7h-5.8a.68.68 0 0 0-.7.7v17.1c0 2.7 1.1 7.2 8.8 7.4h0zM77.7 8.6h-5.8a.68.68 0 0 0-.7.7v23.5c0 12.1-1.9 17.8-8 18.6a.68.68 0 0 0-.7.7v3.8a.68.68 0 0 0 .7.7h0c9.5-.2 15.2-9.3 15.2-24.4V9.3a.68.68 0 0 0-.7-.7zm26.4 8.6c2.1 0 3.9-1.7 3.9-3.9v-.1c0-2.1-1.7-3.9-3.9-3.9-2.1 0-3.9 1.7-3.9 3.9v.1c0 2.2 1.8 3.9 3.9 3.9zM33.7 34.7H27a.68.68 0 0 1-.7-.7V18.7c0-1.2 0-2.5 1-3.4.9-.9 2.2-1.8 5.6-2h.1c.4 0 .7-.4.7-.8v-3c0-.4-.3-.7-.6-.7-.8-.1-1.6-.1-2.4-.1-2.8 0-6.4.4-8.9 2.5-1.8 1.5-2.7 3.5-2.7 5.9V34a.68.68 0 0 1-.7.7h-4.6c-1.5 0-5.4.3-8 3.1-1.3 1.3-2.7 3.8-2.4 7.7.6 6.6 7 11.3 12.6 11.7h.8c2.5 0 4.9-.8 6.7-2.4 1.6-1.4 2.9-3.2 2.9-6.8v-7a.68.68 0 0 1 .7-.7h6.7a.68.68 0 0 0 .7-.7v-4.2c-.1-.4-.4-.7-.8-.7zM19.1 49.3c0 1.1-.2 1.8-.7 2.2-.6.6-1.6.5-1.9.5-1.7-.1-6.5-2-6.5-7.2 0-.8 0-2.5 1-3.6.8-.9 1.8-1 2.7-1h4.6a.68.68 0 0 1 .7.7v8.4zm143.3-24.2c-2.2-1.1-4.7-1.6-7.4-1.6-4.9 0-9.9 1.9-13 3.4-.3.1-.4.4-.4.6v4.9c0 .5.7.9 1.1.6 2.6-1.6 7.6-3.4 11.7-3.4 1.8 0 3.4.3 4.7 1 3 1.6 3.8 8.8 1.6 13.4-1.8 3.8-4.6 6-8.5 7-.3.1-.5.4-.5.7v3.9a.68.68 0 0 0 .7.7h.2c6.9-1.4 11.8-4.8 14.6-10.7 3.7-7.9 1.6-17.1-4.8-20.5zm-36.5-4.5c-11.5 5.2-25.9 6.1-28.6 6.3-.6 0-1 .5-1 1.1v3.5c0 .7.2 1.1 1.1 1 1.3-.1 5.8-.3 9.7-.8.2 0 .4.1.5.2s.2.3.1.5c-.6 1.9-2 6.8-1.1 11 1.6 7.8 10.7 12.5 13.7 13h.1c.2 0 .4-.1.5-.2s.2-.3.2-.5v-4.9c0-.3-.1-.5-.4-.6-1.9-.9-6-2.9-7.1-7.5C112 36 116 30.8 116.9 30c3.4-.9 6.6-2.4 9.5-3.6.3-.1.4-.3.4-.6v-4.7c0-.3-.5-.7-.9-.5zm76.4 16c2.6-.7 5.2-.9 8.1-.9 7.6 0 12.4 3.5 12.4 9.4 0 6.1-4.1 10-11 11h-.5c-1.6 0-2.5-1.3-2.5-2.6 0-1.1.7-2.2 2.2-2.5 4.6-.8 6.5-2.9 6.5-6 0-2.6-2.4-4.8-6.9-4.8-2.9 0-5.6.5-8.1 1.2v8.4c0 4.9-2.1 6.7-6.5 6.7-4.3 0-8.9-3.3-8.9-7.4 0-3.5 2-7.2 10.3-11.1v-8c-2.4.2-4.6.4-6.5.4-1.5 0-2.3-1.2-2.3-2.4s.8-2.5 2.3-2.5c1.9 0 4.2-.2 6.5-.5v-7.2c0-1.6 1.3-2.3 2.6-2.3s2.6.8 2.6 2.3v6.5l4.5-.9c.3-.1.6-.1.9-.1 1.6 0 2.5 1.2 2.5 2.4 0 1-.6 2-2 2.3-1.8.4-3.7.9-5.9 1.2v7.4zm-5.1 6.8c-4.1 2.3-5 3.9-5 5.7 0 1.5 1.7 2.5 3.5 2.5 1.4 0 1.5-.9 1.5-2.1v-6.1zm27.5-16.3c.8.7 1.1 1.5 1.1 2.2 0 1.5-1.3 2.7-2.7 2.7-.6 0-1.3-.2-1.9-.8-1.6-1.4-3.9-3.1-5.7-4.1-.9-.5-1.3-1.3-1.3-2.1 0-1.4 1.2-2.8 2.7-2.8a3.08 3.08 0 0 1 1.3.3c2 1.2 4.6 3 6.5 4.6zm22.5 20.4c0-.5.1-1.1.1-1.7 0-1.3 1.2-2 2.5-2s2.5.7 2.5 2c0 .6 0 1.1-.1 1.7h8.2v-1.9c0-1.2 1.2-1.8 2.5-1.8s2.5.6 2.5 1.8v1.9h11.1c1.1 0 1.7.9 1.7 1.9 0 .9-.6 1.9-1.7 1.9h-11.1v6.4c0 1.2-1.2 1.8-2.5 1.8s-2.5-.6-2.5-1.8v-6.4h-9.1c-1.5 3.9-4.8 6.8-10.1 8.3-.3.1-.6.1-.9.1-1.3 0-2.2-1.1-2.2-2.2 0-.9.5-1.8 1.8-2.2 3-.9 4.9-2.3 6.1-4.1h-10.5c-1.1 0-1.6-1-1.6-1.9 0-1 .5-1.9 1.6-1.9h11.7zm28.4-29c1.1 0 1.7.9 1.7 1.9s-.5 1.9-1.7 1.9h-10.7v1.1c0 1.1-1.2 1.8-2.4 1.8s-2.5-.6-2.5-1.8v-1.1h-8.6v1.1c0 1.1-1.2 1.8-2.4 1.8s-2.5-.6-2.5-1.8v-1.1h-10.4c-1.1 0-1.6-.9-1.6-1.9s.5-1.9 1.6-1.9h10.4v-1.8c0-1.2 1.2-1.8 2.5-1.8 1.2 0 2.4.6 2.4 1.8v1.8h8.6v-1.8c0-1.2 1.2-1.8 2.5-1.8 1.2 0 2.4.6 2.4 1.8v1.8h10.7zm-25.8 11.1c-.5.7-1.1 1.3-1.7 1.9h4.1c2.4 0 3.7 1 3.7 2.5 0 .9-.5 1.9-1.5 3-3.6 3.9-10.2 7.4-17.2 9.1-.2 0-.4.1-.6.1-1.2 0-1.9-1-1.9-2 0-.8.4-1.6 1.5-1.8 2.5-.6 4.8-1.4 6.8-2.3-.1-.1-.2-.1-.3-.2-.6-.5-.9-1-.9-1.6 0-1 1-1.9 2.2-1.9.5 0 .9.1 1.4.5.5.3 1 .8 1.5 1.2 1.3-.9 2.5-1.7 3.5-2.7.2-.1.3-.3.3-.4 0-.2-.2-.3-.7-.3h-5.4a29.24 29.24 0 0 1-5.5 3.4c-.4.2-.8.3-1.1.3-1.1 0-1.9-.9-1.9-1.9 0-.7.4-1.4 1.4-1.8 2.6-1.2 5-2.7 7.1-5H237c-1.1 0-1.6-.9-1.6-1.8s.5-1.8 1.6-1.8h37.9c1.1 0 1.7.9 1.7 1.8s-.6 1.8-1.7 1.8h-12v3.6c2.7-.7 5.4-1.6 7.5-2.5.4-.2.8-.2 1.1-.2 1.2 0 2 .9 2 1.9 0 .7-.5 1.5-1.5 1.9-2.7 1.1-5.8 2-9.1 2.7v1.2c0 .9.4 1.2 3.7 1.2 5.2 0 5.6-.4 6-2.6.2-1.1 1.1-1.7 2.1-1.7 1.1 0 2.3.7 2.3 1.9v.3c-.5 4.2-1.9 5.7-10.3 5.7-7 0-8.2-1-8.2-4.2v-9.4h-8.7zm59-5.9l-.1-6.6c0-1.5 1.3-2.2 2.6-2.2s2.7.7 2.7 2.2l.1 6.7h12c1.3 0 1.9 1.2 1.9 2.3 0 1.2-.7 2.4-1.9 2.4h-11.8c.5 6.5 1.5 11.6 2.9 15.6 2.5 7.3 4.4 9 5.7 9 .9 0 1.5-.5 1.8-3.6.1-1.4 1.2-2 2.3-2 1.2 0 2.5.9 2.5 2.3v.2c-.6 5.8-2.8 8.4-6.5 8.4-4.3 0-7.6-3.2-10.7-12.4-1.5-4.5-2.7-10.3-3.2-17.5H288c-1.2 0-1.9-1.2-1.9-2.4 0-1.1.7-2.3 1.9-2.3h20.8zm-13.1 16h-5.2c-1.3 0-1.9-1.1-1.9-2.3 0-1.1.6-2.3 1.9-2.3h14.8c1.3 0 1.9 1.1 1.9 2.3 0 1.1-.7 2.3-1.9 2.3h-4.5v10l6.3-1.5c.2 0 .5-.1.7-.1 1.4 0 2.3 1.1 2.3 2.3 0 .9-.5 1.8-1.8 2.2-5.5 1.6-13.1 3.2-18.9 3.8h-.3c-1.6 0-2.4-1.2-2.4-2.4 0-1.1.7-2.2 2.2-2.4 2.1-.2 4.5-.6 6.9-1V39.7zm26.9-21.1c.6.6.9 1.2.9 1.8 0 1.2-1.1 2.3-2.4 2.3-.6 0-1.1-.2-1.7-.7-.9-.9-1.7-1.6-2.7-2.4-.6-.5-.9-1.1-.9-1.7 0-1.1 1-2.1 2.3-2.1.5 0 1 .1 1.5.5 1 .7 2 1.4 3 2.3z" fill="#545458"/></svg>
