<svg id="レイヤー_1" data-name="レイヤー 1" xmlns="http://www.w3.org/2000/svg" viewBox="0 0 266.84 85.04"><defs><style>.cls-1{fill:#f7d237;}.cls-2{fill:#FFF;}</style></defs><title>logo-yoriso</title><path class="cls-1" d="M207.27,174.7l3.34,6.89c18.8-7.13,24.73-20,26.07-31.2l-10.09-3.22C226.07,151,224.13,167.34,207.27,174.7Z" transform="translate(-45.93 -138.41)"/><path class="cls-1" d="M294.41,138.41c-.53,3.78-2.47,20.17-19.33,27.53l3.34,6.89c18.8-7.13,24.73-20,26.07-31.2Z" transform="translate(-45.93 -138.41)"/><path class="cls-2" d="M141.1,188.29a1,1,0,0,0,1.07-1v-3.84a1,1,0,0,0-1.06-1,2.88,2.88,0,0,1-2.36-2.54c0-.29,0-1.4,0-1.73v-26.6a1,1,0,0,0-1.06-1H128.9a1,1,0,0,0-1.06,1v25.69c0,4,1.72,10.87,13.24,11.06Z" transform="translate(-45.93 -138.41)"/><path class="cls-2" d="M162.41,150.44h-8.74a1,1,0,0,0-1.06,1v35.33c0,18.24-2.91,26.77-12,28a1.07,1.07,0,0,0-1,1v5.7a1,1,0,0,0,1.06,1h0c14.28-.32,22.8-14,22.8-36.73V151.46A1,1,0,0,0,162.41,150.44Z" transform="translate(-45.93 -138.41)"/><path class="cls-2" d="M208.73,163.36a5.86,5.86,0,0,0,5.86-5.85v-.12a5.86,5.86,0,0,0-11.72,0v.12A5.86,5.86,0,0,0,208.73,163.36Z" transform="translate(-45.93 -138.41)"/><path class="cls-2" d="M91.62,189.65h-10a1,1,0,0,1-1.07-1s0-3.55,0-8.27h0s0-12.17,0-14.8c0-1.85.07-3.74,1.56-5.16s3.24-2.78,8.38-3h.16a1.14,1.14,0,0,0,1-1.18V151.8a1,1,0,0,0-.94-1c-1.18-.1-2.38-.15-3.57-.15-4.26,0-9.69.65-13.4,3.72a11.18,11.18,0,0,0-4.09,8.9v17.12h0v8.27a1,1,0,0,1-1.07,1H61.67c-2.3,0-8.08.45-12.08,4.64-1.92,2-4.1,5.65-3.59,11.56.85,9.88,10.46,16.93,19,17.57.4,0,.81,0,1.21,0a15.21,15.21,0,0,0,10-3.57c2.36-2.1,4.33-4.81,4.33-10.26V199a1,1,0,0,1,1.07-1h10a1,1,0,0,0,1-1v-6.34A1,1,0,0,0,91.62,189.65Zm-22,22A4.38,4.38,0,0,1,68.61,215a4,4,0,0,1-2.82.77c-2.54-.19-9.71-3.07-9.71-10.85,0-1.26.07-3.72,1.5-5.37A5.06,5.06,0,0,1,61.67,198h6.94a1,1,0,0,1,1.06,1Z" transform="translate(-45.93 -138.41)"/><path class="cls-2" d="M302.82,175.26a23.78,23.78,0,0,0-11.12-2.35c-7.31,0-14.87,2.9-19.59,5.17a1.06,1.06,0,0,0-.61,1v7.39a1.14,1.14,0,0,0,1.7.9,38,38,0,0,1,17.52-5.08,15.1,15.1,0,0,1,7,1.51c4.52,2.35,5.78,13.17,2.45,20.11a18.51,18.51,0,0,1-12.78,10.51,1.08,1.08,0,0,0-.82,1v5.86a1.1,1.1,0,0,0,1.12,1.08l.23,0c10.3-2.08,17.69-7.24,22-16.14C315.63,194.23,312.52,180.31,302.82,175.26Z" transform="translate(-45.93 -138.41)"/><path class="cls-2" d="M241.4,168.53c-17.28,7.81-39,9.24-43,9.45a1.57,1.57,0,0,0-1.52,1.6v5.22c-.06,1,.31,1.61,1.69,1.51,2-.09,8.79-.47,14.52-1.25a.93.93,0,0,1,.75.37.83.83,0,0,1,.13.78c-.93,2.85-2.94,10.16-1.6,16.6,2.43,11.69,16.16,18.84,20.67,19.59l.18,0h0a1.05,1.05,0,0,0,.73-.29,1,1,0,0,0,.31-.71v-7.34a1,1,0,0,0-.55-.88c-2.89-1.42-9.06-4.3-10.69-11.26A21.83,21.83,0,0,1,228,182.84c5-1.28,9.91-3.62,14.27-5.36a1,1,0,0,0,.64-.93v-7.12A1.06,1.06,0,0,0,241.4,168.53Z" transform="translate(-45.93 -138.41)"/></svg>