<svg
    width="28"
    height="28"
    viewBox="0 0 20 20"
    xmlns="http://www.w3.org/2000/svg"
>
    <path
        fill-rule="evenodd"
        clip-rule="evenodd"
        d="M16.317 3L9.82924 5.01905V17L16.317 14.9809V3ZM11.0457 15.024V14.6246L15.1006 13.3627V13.7621L11.0457 15.024ZM11.0457 13.8259V13.4265L15.1006 12.1646V12.564L11.0457 13.8259ZM11.0457 12.6278V12.2284L15.1006 10.9665V11.3659L11.0457 12.6278ZM11.0457 11.4297V9.03349L15.1006 7.77158V10.1678L11.0457 11.4297ZM11.0457 8.23476V7.83539L15.1006 6.57348V6.97285L11.0457 8.23476ZM11.0457 7.03666V6.63729L15.1006 5.37538V5.77475L11.0457 7.03666ZM9.48781 5.02845L3 3.34145V15.313L9.48781 17V5.02845Z"
        fill="#4071a2"
    />
</svg>